<?xml version="1.0" encoding="UTF-8"?>
<svg id="Layer_1" xmlns="http://www.w3.org/2000/svg" version="1.1" viewBox="0 0 400 400">
  <!-- Generator: Adobe Illustrator 29.8.1, SVG Export Plug-In . SVG Version: 2.1.1 Build 2)  -->
  <defs>
    <style>
      .st0 {
        fill: #7e3f25;
      }

      .st1 {
        fill: #fff;
      }

      .st2 {
        fill: #cf2b2c;
      }

      .st3 {
        fill: #ffdea2;
      }

      .st4 {
        fill: #ef9a62;
      }
    </style>
  </defs>
  <g id="Layer_3">
    <g>
      <path class="st0" d="M138.86,106.52c1.07,2.03,1.57,4.33,1.58,6.62-.6,1.43-1.35,3.09-2.48,4.1-1.76,1.57-4.48,1.82-6.65.9s-3.8-2.87-4.67-5.06c-1.31-3.31-.95-7.24.94-10.24.6-.94,1.37-1.82,2.34-2.34,1.17.05,2.35.32,3.44.78,2.37,1.03,4.29,2.95,5.49,5.23Z"/>
      <path class="st0" d="M201.91,105.66c2.25,2.88,2.43,7.07,1.06,10.47-1,2.46-2.89,4.71-5.46,5.39-1.06.28-2.18.28-3.26.12-.98-.14-1.96-.39-2.84-.84-1.62-.82-2.88-2.26-3.69-3.87-1.83-3.59-1.48-8.19.86-11.46.5-.7,1.08-1.51,1.78-2.07,3.32-.66,6.86-.28,9.9,1.18.57.32,1.13.68,1.66,1.09h0Z"/>
      <path class="st3" d="M160.3,154.28c-2.69,2.09-6.22,3.08-9.61,2.66-.98-.12-1.93-.36-2.88-.65-2.29-.7-4.51-1.72-6.84-2.26-1.09-.26-2.81-.42-3.88-.04.66-.77,1.38-1.49,2.14-2.16,2.77-2.4,6.24-4.04,9.88-4.41,2.19-.22,4.39,0,6.58-.15,2.5-.17,5.8-.84,8.2-2.29h0c.02.15.02.29.03.43.11,2.74-.87,6.37-2.82,8.18-.26.24-.53.47-.81.69h0Z"/>
      <path class="st3" d="M131.11,145.35c.56-3.12,1.53-6.18,2.81-9.07,1.01-2.28,2.26-4.51,3.78-6.51,2.15-2.82,4.83-5.16,8.12-6.44.66-.26,1.41-.48,2.09-.24.25.09.46.22.63.39.77.73.94,2.09,1.09,3.24.6,4.38,3.73,8.53,8.05,9.51,1.78.41,3.69.29,5.36,1,2.21.94,4.54,4.49,2.45,6.55-.46.46-1.01.86-1.61,1.21-2.4,1.45-5.7,2.12-8.2,2.29-2.19.15-4.39-.07-6.58.15-3.64.37-7.11,2.01-9.88,4.41-.77.66-1.48,1.39-2.14,2.16-.39.44-.76.9-1.11,1.38-1.22,1.65-2.22,3.48-3,5.39-1.05-.44-1.48-1.67-1.74-2.78-.94-4.14-.91-8.44-.14-12.62h0Z"/>
      <path class="st2" d="M137.68,129.76l.02.02c-1.52,1.99-2.77,4.23-3.78,6.51-1.28,2.89-2.25,5.94-2.81,9.07-1.11-.53-1.98-1.53-2.31-2.71-.43-1.5-.03-3.12.59-4.55,1.59-3.68,4.61-6.73,8.29-8.33Z"/>
      <path class="st2" d="M149.64,126.72c-.15-1.14-.32-2.51-1.09-3.24l.12-.13c1.32,1.16,2.84,2.09,4.34,3.01,2.18,1.34,4.37,2.67,6.62,3.9,2.62,1.44,5.34,2.74,7.66,4.62,2.15,1.73,3.91,3.92,5.3,6.31.57,1,1.1,2.06,1.2,3.2.22,2.39-1.72,4.77-4.11,5.03-2.38.26-4.8-1.63-5.11-4.01h-.63c0-.14-.02-.28-.03-.42h0c.6-.36,1.14-.76,1.61-1.21,2.09-2.06-.24-5.61-2.45-6.55-1.68-.71-3.59-.59-5.36-1-4.31-.97-7.45-5.13-8.05-9.51h0Z"/>
      <path class="st2" d="M135.75,190.94l-.17,1.05c-3.52-.93-6.26-4-7.33-7.49-.71-2.33-.79-4.87-.37-7.31l.89.15c2.16-6.66,6.74-12.4,7.32-19.37,0-.11.07-.4.1-.5.13-.37.48-1.6.37-1.64l-.57-.46c.35-.47.71-.94,1.11-1.38,1.07-.38,2.79-.22,3.88.04,2.33.54,4.55,1.56,6.84,2.26h0c.27,1.1.1,2.71,0,3.83-.2,2.24-1.14,4.34-2,6.42-1.24,3.01-2.35,6.08-3.01,9.27-.58,2.76-.82,5.67-.05,8.38.4,1.43,1.1,2.77,2.02,3.93-.42.9-1.45,1.78-2.31,2.16-2.06.91-4.44.97-6.7.66Z"/>
      <path class="st2" d="M144.76,188.12c-.92-1.17-1.62-2.5-2.02-3.93-.77-2.71-.53-5.62.05-8.38.66-3.18,1.78-6.26,3.01-9.27.87-2.08,1.8-4.18,2-6.42.1-1.12.27-2.73,0-3.82h0c.94.28,1.89.52,2.88.64,3.39.43,6.92-.56,9.61-2.66-.1,2.16.58,4.76,1.31,6.77.62,1.7,1.51,3.28,2.31,4.89,1.78,3.57,3.15,7.41,3.35,11.39.19,3.99-.87,8.13-3.47,11.15-2.86,3.32-7.54,4.98-11.84,4.14-2.84-.56-5.43-2.23-7.2-4.51Z"/>
      <path class="st2" d="M236.48,82.7c-9.49-12.51-28.18-21.17-43.86-20.4-15.68.77-31.01,6.11-37.7,20.99-3.8-5.43-4.14-10.44-5.41-17.06l-.99.12c-1.77-14.7,3.91-28.01,11.77-40.63,1.57-2.54,3.37-5.1,6.03-6.45.78-.39,1.65-.67,2.52-.56.94.12,1.75.7,2.49,1.28,6.43,5.03,11,12.4,12.65,20.39.11-4.89,3.72-9.18,8.08-11.39s9.38-2.69,14.27-2.84c3.03,5.77,6.15,12.09,5.04,18.51,6.06-2.82,13.5-2.47,19.27.9.54.32,1.07.66,1.41,1.19.42.64.47,1.45.5,2.21.15,4.19-.19,8.39-1.01,12.5l.13.97c4.17-.59,8.6.84,11.6,3.8.12.12.25.26.29.43.03.15-.02.32-.08.46-1.45,4.12-3.71,7.95-6.62,11.19-.94,1.05-1.09,1.17-.8,2.56.13.6.35,1.17.62,1.72,0,0-.2.1-.2.1Z"/>
      <path class="st4" d="M191.67,102.73h0c-4.16.46-8.12,2.78-10.45,6.27-.63.94-1.15,1.96-1.37,3.08-.22,1.14-.22,2.15-.25,3.31-.15,4.4.21,6.96,1.29,11.33.13.52.67,2.08,1.19,2.2.26.06,1.51.15,2.15.18,5.72.22,11.19-1.09,15.76-2.9.72-.28,1.67-.98,2.6-1.56.66-.4,1.52-1.98,2.14-3.2.9-1.77,1.75-4.1,1.97-6.4.05-.26.11-.52.15-.78.02-.14-.09.19-.09-.38v-.06c0-.22,0-.43-.03-.65-.05-.9-.24-1.78-.6-2.59-.26-.68-.6-1.36-.99-2.03-.96-1.62-2.59-2.76-4.25-3.66-.21-.12-.43-.22-.64-.32-1.86-1.07-3.92-1.74-6.01-1.89-.86-.07-1.72-.05-2.57.05h0ZM123.49,102.91c-.09.1-.18.21-.26.32-2.6,3.17-1.99,7.54-1.71,11.63.12,1.65.88,4.35,1.81,5.65,2.23,3.1,6.48,3.56,9.96,4.68,1.37.44,4.53.99,4.84.22.62-1.52,1.41-3.74,1.68-5.2.45-2.41.8-4.85.73-7.29,0-.38-.02-.76-.05-1.14-.22-2.82-1.1-5.64-2.88-7.84-1.73-2.13-4.33-3.59-7.07-3.78-2.58-.19-5.25.8-7,2.7-.02.02-.03.03-.05.05ZM136.56,155.83c.11.04-.24,1.27-.37,1.64-.03.1-.09.39-.1.5-.58,6.97-5.16,12.72-7.32,19.37l-.89-.15c.2-1.21.53-2.4.95-3.53-1.07-3.59-4.41-5.91-7.11-8.5-8.55-8.19-11.69-21.55-7.68-32.69,1.21-3.38,3.04-6.61,3.35-10.18.22-2.61-.38-5.21-.69-7.82-1.32-11.24,2.96-22.51,9.18-31.97,2.63-4.01,5.65-7.83,9.46-10.74,3.8-2.91,8.47-4.87,13.26-4.83-.02-.19-.05-.39-.07-.59l.99-.12c1.27,6.62,1.62,11.63,5.41,17.06,6.69-14.87,22.02-20.21,37.7-20.99s34.37,7.89,43.86,20.4l.2-.1c.35.71.77,1.4,1.2,2.07,5.21,8.35,9.65,17.38,11.15,27.1,1.3,8.48.29,17.19-1.93,25.47-2.22,8.29-4.31,14.87-5.2,22.18-2.92,23.78,3.89,46.3,16.58,66.61,4.4,7.04,9.64,11.63,17.03,15.42,3.32,1.7,7.26,3,10.71,1.61-4.71,5.53-12.34,8.39-19.53,7.33-.39-.06-.82-.15-1.21-.3-.6-.62-1.21-1.23-1.82-1.84.09.94.9,1.52,1.82,1.84,14.23,28.59,38.23,61.48,51.5,89.79l-.04.02c1.04,4.44,2.07,8.88,3.11,13.32.21.91.42,1.89.05,2.74-.34.78-1.08,1.29-1.79,1.75-18.25,11.63-40.32,16.02-61.64,19.76-21.2,3.72-42.45,4.29-63.52,3.61-17.63-.57-44.33-2.26-61.86-4.32-14.94-1.76-27.13-4.44-35.42-13.01-2.16-7.74-.99-16.33,3.14-23.22-4.76,4.02-8.48,9.27-10.69,15.1-1.72-4.97-1.92-10.34-1.75-15.6.94-28.96,13.84-57.84,33.71-78.93-.52.19-.93.58-1.33.94-3.57,3.19-8.38,4.75-13.16,5.06-4.78.31-9.55-.55-14.21-1.69,5.71-1.18,10.9-4.23,15.35-8,4.44-3.76,8.22-8.26,11.93-12.75,2.55-3.1,5.18-6.25,7.22-9.71,3.75-6.35,5.71-13.56,6.94-20.78.63-3.71,1.07-7.45,1.45-11.19.09-.94,1.31-10.91,1.09-10.97l.17-1.05c2.26.32,4.65.26,6.7-.66.87-.39,1.89-1.26,2.31-2.16,1.76,2.28,4.35,3.94,7.2,4.51,4.3.84,8.98-.82,11.84-4.14,2.61-3.02,3.66-7.17,3.47-11.15-.2-3.98-1.57-7.82-3.35-11.39-.8-1.62-1.69-3.19-2.31-4.89-.73-2.01-1.41-4.61-1.31-6.77.28-.22.55-.45.81-.69,1.96-1.81,2.93-5.43,2.82-8.18h.63c.31,2.37,2.73,4.27,5.11,4,2.39-.26,4.33-2.64,4.11-5.03-.1-1.14-.63-2.2-1.2-3.2-1.38-2.39-3.15-4.58-5.3-6.31-2.32-1.88-5.04-3.18-7.66-4.62-2.25-1.23-4.44-2.56-6.62-3.9-1.51-.92-3.02-1.85-4.34-3.01l-.12.13c-.18-.17-.39-.3-.63-.39-.68-.24-1.43-.02-2.09.24-3.29,1.28-5.97,3.62-8.12,6.44l-.02-.02c-3.68,1.6-6.7,4.65-8.29,8.33-.62,1.44-1.02,3.05-.59,4.55.33,1.18,1.21,2.19,2.31,2.71-.77,4.18-.8,8.48.14,12.62.26,1.11.69,2.34,1.74,2.78.78-1.91,1.78-3.73,3-5.39l.57.46h0Z"/>
    </g>
    <path class="st1" d="M206.8,115.03c-.22,2.3-1.07,4.63-1.97,6.4-.63,1.22-1.48,2.8-2.14,3.2-.93.58-1.88,1.28-2.6,1.56-4.58,1.81-10.04,3.12-15.76,2.9-.64-.03-1.89-.12-2.15-.18-.52-.12-1.06-1.69-1.19-2.2-1.08-4.38-1.44-6.93-1.29-11.33.03-1.16.02-2.17.25-3.31.22-1.11.74-2.14,1.37-3.08,2.33-3.49,6.29-5.81,10.45-6.27-.48.09-.92.33-1.31.66-.7.56-1.28,1.37-1.78,2.07-2.34,3.28-2.69,7.87-.86,11.46.82,1.62,2.08,3.05,3.69,3.87.89.45,1.86.7,2.84.84,1.08.15,2.2.15,3.26-.12,2.57-.68,4.46-2.93,5.46-5.39,1.38-3.4,1.19-7.58-1.06-10.47,1.52,1.12,2.81,2.51,3.8,4.09.16.26.31.54.43.83.32.84.53,1.7.6,2.59.02.22.03.43.03.65v.06c0,.39-.02.77-.06,1.16h0Z"/>
    <path class="st1" d="M140.55,113.15c.04-.08.07-.15.1-.22.06,2.43-.29,4.88-.73,7.29-.26,1.46-1.06,3.69-1.68,5.2-.31.77-3.47.22-4.84-.22-3.49-1.12-7.74-1.58-9.96-4.68-.93-1.3-1.69-4-1.81-5.65-.29-4.09-.89-8.46,1.71-11.63.09-.11.18-.22.26-.32.02-.02.02-.03.05-.05.67-.66,1.46-1.21,2.32-1.6,1.28-.58,2.67-.82,4.07-.76-.97.52-1.75,1.4-2.34,2.34-1.89,3.01-2.26,6.93-.94,10.24.87,2.2,2.5,4.14,4.67,5.06s4.89.66,6.65-.9c1.13-1.01,1.89-2.67,2.48-4.1Z"/>
  </g>
</svg>