<?xml version="1.0" encoding="UTF-8"?>
<svg id="Layer_1" xmlns="http://www.w3.org/2000/svg" version="1.1" viewBox="0 0 400 400">
  <!-- Generator: Adobe Illustrator 29.8.1, SVG Export Plug-In . SVG Version: 2.1.1 Build 2)  -->
  <defs>
    <style>
      .st0 {
        stroke: #010101;
      }

      .st0, .st1, .st2, .st3, .st4, .st5, .st6, .st7 {
        fill: none;
        stroke-miterlimit: 10;
      }

      .st8 {
        fill: #010101;
      }

      .st9 {
        fill: #231f20;
      }

      .st10 {
        fill: #423e63;
      }

      .st11 {
        fill: #5f3045;
      }

      .st1 {
        stroke-width: .92px;
      }

      .st1, .st2, .st3, .st4, .st5, .st6, .st7 {
        stroke: #231f20;
      }

      .st12 {
        fill: #fff;
      }

      .st13 {
        fill: #fbd8de;
      }

      .st2 {
        stroke-width: .46px;
      }

      .st14 {
        fill: #f9bac2;
      }

      .st3 {
        stroke-width: 1.85px;
      }

      .st4 {
        stroke-width: 5.54px;
      }

      .st5 {
        stroke-width: 3.69px;
      }

      .st6 {
        stroke-width: 3px;
      }

      .st7 {
        stroke-width: 7.39px;
      }

      .st15 {
        fill: #826d79;
      }

      .st16 {
        fill: #a88ac0;
      }
    </style>
  </defs>
  <g id="Layer_4">
    <path class="st12" d="M298.89,166.42c-.13-.43-.25-.85-.39-1.27-.08-.29-.17-.58-.26-.87.4-.78.75-1.58,1.06-2.4h.04c1.17.18,2.32.6,3.33,1.2,2.31,1.37,4.03,3.54,5.54,5.76.56.82,1.1,1.65,1.61,2.5,5.9,11.3,10.67,23.21,14.24,35.45.62,2.37,1.14,4.76,1.59,7.17.3,1.6.3,1.61,0,.02.04.55.04,1.11,0,1.66-.17,2.28-1.03,4.4-2.15,6.4-.56.99-1.19,1.95-1.84,2.87-6.1,8.66-14.19,15.72-22.54,22.25-6.12,4.79-17.51,11.88-31.45,19.92-13.4,7.73-29.17,16.34-44.91,24.62-29.93,15.74-59.76,30.31-73.06,35.4-2.38-.14-4.8-1.13-6.22-3.05s-2.18-4.23-2.71-6.55c-1.39-6-1.4-12.2-1.83-18.36,0-.22-.02-.44-.05-.65-.07-1.02-.16-2.03-.27-3.05-.68-6.22-2.37-12.68-6.24-17.49-.46-.19-1.1-.17-1.8-.05-.7-.75-1.45-1.45-2.26-2.1,0,.11,0,.21.03.31-2.18-1.93-4.62-3.37-7.29-4.32-.12-.06-.24-.11-.35-.16-1.16-.5-2.12-.74-3.38-.83,1.29.24,2.54.57,3.74,1,3.08,1.4,5.87,3.45,8.15,5.96.08.14.18.28.27.42-.32.1-.64.21-.95.32-.78.27-1.5.57-2.01.77-9.86,3.82-19.61,10.23-27.51,17.25-.09.08-.1.11-.05.11l-.17.96c-1.77-.33-3.56-.54-5.34-.65v-.15c-1.65-9.74-6.82-18.82-14.33-25.21,2.63-1.76,5.99-2.5,9.15-1.97,3.17.52,6.1,2.29,7.98,4.8l2.23-.76c1.86,5.24,2.78,10.93,2.69,16.2-.04.49-.05.96-.04,1.43.03-.47.04-.95.04-1.43.47-7.6,5.72-16.36,11.58-20.94,2.74-2.15,6.5-2.79,10.1-3.31,1.28-.18,2.33-.22,3.62-.27,1.96-.07,4.22-1.03,6.11-1.57,7.8-2.2,15.42-5.04,22.87-8.26,15.03-6.5,29.33-14.52,43.67-22.4,7.03-3.87,14.08-7.72,21.24-11.35,13.18-6.68,26.79-12.65,39.04-20.9,9.07-6.11,17.28-13.39,25.37-20.75,1.15-1.05,2.31-2.12,3.46-3.21-.73,1.32-1.54,2.61-2.41,3.84-1.81,1.76-3.69,3.47-5.57,5.14-10.44,9.32-21.41,18.07-32.81,26.18,6.63-3.67,12.96-7.89,18.9-12.58,12.83-8.56,23.2-20.54,32.55-32.99h0Z"/>
    <path class="st12" d="M91.68,270.04c.63.4,1.28.77,1.94,1.1-.61-.44-1.26-.81-1.94-1.1ZM68.76,241.72l-.15-.35c2.13-.94,4.38-1.64,6.21-1.87l-.08-.69s.09-.19.16-.41c.15-.04.33-.04.51.04-.12-1.33-.34-.58-.51-.04-.07,0-.14.03-.19.05-.78.29-1.06,1.12-.56-3.54.15-1.36,1.13-2.51,1.39-3.86.74-3.9-3.06-6.97-6.08-9.54-8.09-6.89-13.23-17.06-14.26-27.61h.04c.82,7.88,5.59,16.43,10.93,21.42,3.2,2.99,6.89,5.46,10.24,8.28.82.69,1.61,1.4,2.39,2.15,0,.04-.02.06-.03.1-.08.34-.15.67-.22,1.01-.09.48-.17.95-.24,1.43-.05.37-.1.74-.15,1.12-.25,2.32-.3,4.65-.32,6.99,0,.18,0,.37,0,.55-.05,6.26,2.58,11.58,6.34,16.59,2.17,2.89,4.96,5.24,7.38,7.93,3,3.36,5.33,7.58,6.94,12.12l-2.23.76c-1.88-2.51-4.81-4.28-7.98-4.8-3.17-.53-6.52.21-9.15,1.97-.14-.13-.27-.24-.41-.35l-.12-.17c-3.78,2.7-7.04,6.21-9.82,9.98-1.71,2.34-3.26,4.79-4.71,7.29-1.87,3.22-3.59,6.54-5.33,9.84-.26.5-.54,1.02-.86,1.49-.44.65-.96,1.22-1.65,1.6-.24.13-.51.23-.78.17-.37-.06-.64-.4-.85-.72-1.89-2.72-3.48-5.65-4.75-8.73-1.66-4-2.77-8.24-3.27-12.56-.02-.15-.03-.28-.05-.43-.16-1.62-.22-3.28.24-4.85.42-1.43,1.24-2.71,2.05-3.96,4.94-7.63,9.86-15.26,14.79-22.89,1.21-1.87,2.46-3.78,4.27-5.04.24-.16.53-.33.87-.48h0Z"/>
    <path class="st12" d="M110.84,99.48c-.16-.02-.34.03-.48.13.16-.04.33-.08.48-.13ZM114.52,91.39s.03-.05.04-.07c.34,1.51.46,2.95.24,3.98-.81,3.85-1.11,4.11-3.45,4.67v.08c-.52.08-1.04.15-1.56.24h-.02c-.19.03-.37.05-.56.08-3.75.54-7.58,1.22-10.82,3.18-.3.18-.58.36-.86.56h0c-2.5-.85-4.67-2.61-7.25-3.16-.21-.05-.81-.38-1.61-1.2-.45-.47-.4-.54-.55-1.18-1.24-5.37,2.65-11.74,4.66-17.14.4-1.08.15-1.73,1.16-2.3,1.18-.67,2.63-1.22,3.93-.83,4.76,1.39,10.56,2.5,13.94,6.59.95,1.15,1.91,3.28,2.51,5.42-.05.55-.1,1.09-.17,1.6-.86-3.81-3.49-7.1-6.74-9.27-3.1-2.09-6.75-3.24-10.45-3.86,0-.05-.06-.05-.13-.02h0c-.14.05-.3.21.05.2-2.14,3.03-3.67,10.33-2.4,13.79,1.26,3.47,2.9,5.97,6.43,7.26.93.34,3.04.03,4.03-.04,1.41-.08,4.59-.48,5.7-1.36,2.4-1.92,3.15-4.03,3.51-6.7,0,.03,0,.05.02.08.13-.2.24-.4.36-.6h0Z"/>
    <g>
      <g>
        <path class="st10" d="M351.11,268.13c.39,1.18.73,2.59-.04,3.57-.61.78-1.7.98-2.68,1.12-.83.12-1.66.24-2.49.34-14.09,1.97-28.21,3.86-42.43,4.43-7.48.3-14.8,1.24-22.27.63-1.93-.16-6.41-.15-8.45-1.4-.44-.27-.77-.6-.93-1-.81-1.96-2.79-7-3.8-9.24l-.34-.59c13.94-8.05,25.32-15.13,31.45-19.92,8.35-6.52,16.44-13.58,22.54-22.25.65-.92,1.28-1.88,1.84-2.87,12.38,13.56,21.86,29.74,27.6,47.17h0Z"/>
        <path class="st15" d="M324.56,207.37c.51,1.81,1,3.66,1.11,5.52-.44-2.4-.97-4.8-1.59-7.17.16.55.33,1.1.48,1.65h0Z"/>
        <path class="st15" d="M324.08,205.72c-3.57-12.24-8.34-24.14-14.24-35.45,2.76,4.49,4.98,9.31,7.01,14.18,2.88,6.91,5.39,14.02,7.22,21.27Z"/>
        <path class="st15" d="M304.4,162.43c2.04,1.59,3.37,3.91,4.58,6.2.29.54.58,1.09.86,1.64-.52-.84-1.05-1.68-1.61-2.5-1.52-2.22-3.23-4.39-5.54-5.76-1.01-.6-2.16-1.02-3.33-1.2,1.75-.14,3.62.52,5.04,1.61h0Z"/>
        <path class="st15" d="M299.33,160.82h.03-.04,0Z"/>
        <path class="st15" d="M299.32,160.83c-.31.83-.66,1.62-1.06,2.4-.2-.66-.41-1.32-.62-1.99.53-.24,1.1-.37,1.68-.42h0Z"/>
        <path class="st15" d="M295.84,163.91c-.08.38-.17.76-.28,1.14.09-.38.18-.76.28-1.14Z"/>
        <path class="st15" d="M295.47,165.37c.04-.11.06-.21.09-.32-.14.53-.26,1.04-.39,1.56.1-.42.19-.83.3-1.24Z"/>
        <path class="st13" d="M294.65,163.12c.14-.56.29-1.13.46-1.68-.14.56-.29,1.13-.46,1.68Z"/>
        <path class="st13" d="M78.17,228.37l.11-.84c.23.05.46.13.71.2,1.22.79,2.59,1.34,3.99,1.77,3.69,1.95,7.63,4.64,9.67,5.63,9.69,4.74,19.73,9.53,30.5,10.04,11.58.54,22.85-3.95,32.8-9.9s18.92-13.39,28.71-19.59c12.78-8.09,26.93-14.04,41.65-17.49,7.52-1.76,15.38-2.96,22-6.92,10.09-6.04,15.51-17.32,22.21-26.98,4.32-6.23,13.42-15.04,20.79-13.26,1,.24,1.03.85,1.67,1.66.83,1.03,3.03,4.05,2.97,5.37-.05,1.06-.2,2.13-.43,3.2-.14.05-.27.11-.41.18-.17.55-.33,1.12-.46,1.68-.84,2.85-2.06,5.6-3.59,8.15.82-2.3,1.62-4.58,2.44-6.88.73-2.04,1.47-4.17,1.23-6.33-1.52,6.1-3.45,12.27-6.49,17.73-.53.5-.82,1.11-1.09,1.71-.73,1.01-1.5,2-2.25,2.96-1.16,1.08-2.3,2.15-3.43,3.22-.05.04-.09.08-.14.12-.36.33-.72.64-1.08.97-9.14,8.16-18.68,15.88-28.55,23.11h0c-6.86,3.67-13.73,7.39-20.63,11.11-2.45,1.22-4.89,2.43-7.3,3.66-7.16,3.63-14.69,7.54-21.72,11.41-3.55,1.95-7.1,3.94-10.67,5.92-.03.02-.06.04-.1.05-16,8.17-32.55,16.13-50.06,23.53,0,0-.02,0-.03,0-2.66.92-5.25,1.75-7.68,2.43-.37.1-.72.24-1.04.38-4.38.9-9.42,1.55-13.74,2.69-1.07.08-2.14.33-3.57,1.1-.07.04-.14.07-.21.12-1.35.54-2.56,1.18-3.54,1.95-2.35,1.86-4.36,4.44-6.08,7.13,0,.02-.03.04-.04.05-1.14,1.61-2.14,3.31-2.92,5.02-.02,0-.03.03-.03.05-.54.97-1.04,1.91-1.52,2.77-.14-4.44-1.82-8.89-4.29-13.21-.09-.24-.18-.49-.26-.73-1.61-4.55-4.47-8.3-7.48-11.66-2.41-2.69-5.5-5.43-7.67-8.32-.07-.09-.14-.18-.2-.28-1.51-2.63-2.53-5.41-3.18-8.36-.43-2.78-.43-5.69-.4-8.66,0-.18.51-.5.51-.68.02-2.33.06-4.66.32-6.99h0Z"/>
        <path class="st13" d="M295.53,161.26c-1.02,4.81-3.69,9.61-6.79,14.05,0,0,0,.02,0,.02-.15.15-.32.31-.48.46,3.04-5.46,4.96-11.63,6.49-17.73.24,2.16-.5,4.29-1.23,6.33-.82,2.3-1.62,4.58-2.44,6.88,1.53-2.55,2.75-5.3,3.59-8.15.17-.55.33-1.12.46-1.68.14-.07.27-.14.41-.18Z"/>
        <path class="st15" d="M295.56,165.05c.11-.38.2-.76.28-1.14-.1.38-.19.76-.28,1.14-.03.11-.05.21-.09.32-.11.41-.2.83-.3,1.24.13-.52.25-1.03.39-1.56ZM288.74,175.31c3.09-4.44,5.77-9.24,6.79-14.05.63-.27,1.28-.44,1.96-.5.05.15.11.32.15.48.21.66.42,1.32.62,1.99-2.28,4.53-5.76,8.45-9.52,12.08h0Z"/>
        <path class="st10" d="M268.02,266.59c1.02,2.23,2.99,7.28,3.8,9.24.16.4.49.73.93,1,6.73,15.51,12,28.83,17.18,44.28.28.85.57,1.76.43,2.65-.19,1.15-1.07,2.07-1.91,2.88-7.76,7.39-16.79,13.36-26.17,18.55-8.88,4.92-15.89,8.76-21.52,11.86-1.8,1-3.65,2.01-5.51,3.03-.42.23-.83.45-1.23.67-2.4,1.3-4.82,2.62-7.22,3.97-.02,0-.03.02-.05.03-6.8,3.73-10.09,5.59-14.37,8.18-2.98.11-5.95.21-8.92.29-15.78.43-31.99.58-48.34.13v-.27c.31-1.06,6.43-17.28,7.78-20.04,12.14-24.8,37.63-46.03,59.86-62.4,15.74-8.28,31.51-16.89,44.91-24.62l.34.59h0Z"/>
        <path class="st13" d="M288.73,175.32c-.34.49-.68.97-1.04,1.45.19-.33.38-.66.56-.99.16-.15.33-.31.48-.46h0Z"/>
        <path class="st15" d="M287.69,176.78c.36-.48.71-.96,1.04-1.45,0,0,0,0,0-.02,3.76-3.63,7.24-7.55,9.52-12.08.09.29.18.58.26.87-3.27,5.68-7.63,10.62-12.37,15.21.36-.42.6-.9.83-1.38.23-.35.44-.72.66-1.08.03-.02.05-.05.05-.07h0Z"/>
        <path class="st13" d="M287.16,177.5c.27-.61.56-1.22,1.09-1.71-.18.33-.37.66-.56.99,0,.03-.02.05-.05.07-.15.22-.31.44-.48.65h0Z"/>
        <path class="st15" d="M287.16,177.5c-.06.15-.12.29-.18.43-.36.57-.74,1.13-1.13,1.68v.02s-.07.06-.11.09c-.28.24-.55.5-.83.74.75-.96,1.52-1.95,2.25-2.96h0Z"/>
        <path class="st10" d="M281.21,278.22c7.47.62,14.79-.33,22.27-.63,14.23-.57,28.34-2.46,42.43-4.43l.05.33c12.56,21.91,21.84,45.7,27.43,70.32-6.41,3.03-14.42,5.89-20.78,7.78-45.11,13.47-93.05,19.52-140.22,21.32,4.28-2.59,7.58-4.45,14.37-8.18.02,0,.03-.02.05-.03,2.05-1.13,4.42-2.43,7.22-3.97.41-.22.82-.44,1.23-.67,1.86-1.03,3.71-2.03,5.51-3.03,5.63-3.09,12.64-6.94,21.52-11.86,9.37-5.19,18.41-11.16,26.17-18.55.84-.81,1.72-1.72,1.91-2.88.15-.89-.15-1.8-.43-2.65-5.17-15.44-10.44-28.77-17.18-44.28,2.04,1.24,6.51,1.23,8.45,1.4h0Z"/>
        <path class="st15" d="M285.92,179.54c-.05.06-.1.13-.16.19l.08-.11.08-.08h0Z"/>
        <path class="st15" d="M285.92,179.54l-.08.08s0,0,0-.02c.03-.02.05-.05.07-.06h0Z"/>
        <path class="st15" d="M285.84,179.61c.39-.54.77-1.11,1.13-1.68-.23.48-.46.96-.83,1.38-.07.08-.15.16-.24.24-.03.02-.05.05-.07.06Z"/>
        <path class="st13" d="M284.91,180.46c-.04.05-.08.11-.13.16-1.09,1.04-2.2,2.05-3.3,3.06,1.13-1.07,2.27-2.14,3.43-3.22h0Z"/>
        <path class="st15" d="M285.74,179.72s.06-.05.1-.09l-.08.11c-.83.96-1.67,1.91-2.52,2.86.51-.64,1.03-1.3,1.55-1.97.32-.29.64-.6.95-.91h0Z"/>
        <path class="st15" d="M298.91,165.37c-6.73,8.96-14,17.68-22.33,25.06,1.81-1.94,3.54-3.97,5.19-6.02.47-.59.96-1.2,1.46-1.81.85-.94,1.7-1.9,2.52-2.86.06-.06.12-.13.16-.19.08-.07.16-.15.24-.24,4.74-4.58,9.1-9.53,12.37-15.21.14.42.26.84.39,1.27h0Z"/>
        <path class="st13" d="M281.34,183.8c-6.26,5.93-12.15,11.79-19.16,17.17-2.79,2.13-5.77,4.15-8.86,6.05-.02,0-.04.03-.05.04-.52.27-1.03.54-1.55.83,9.87-7.23,19.42-14.95,28.55-23.11.36-.33.72-.64,1.08-.97h0Z"/>
        <path class="st13" d="M266.36,198.36c3.59-2.4,6.99-5.06,10.23-7.93-4.65,5.01-9.86,9.51-15.86,12.67-1.06.56-2.12,1.12-3.18,1.69,3.02-2.02,5.96-4.17,8.82-6.42h0Z"/>
        <path class="st13" d="M266.36,198.36c6.05-4.78,11.71-10.06,16.88-15.77-.5.62-.99,1.22-1.46,1.81-1.65,2.05-3.38,4.08-5.19,6.02-3.24,2.87-6.63,5.53-10.23,7.93h0Z"/>
        <path class="st13" d="M262.18,200.96c7.01-5.37,12.9-11.23,19.16-17.17.05-.04.09-.08.14-.12,1.11-1.01,2.21-2.01,3.3-3.06-.52.67-1.04,1.32-1.55,1.97-5.16,5.71-10.82,10.99-16.88,15.77-2.86,2.25-5.8,4.4-8.82,6.42l-4.22,2.23c3.09-1.91,6.07-3.92,8.86-6.05h0Z"/>
        <path class="st15" d="M253.32,207.02l4.22-2.23c-3.27,2.2-6.63,4.25-10.08,6.16,1.12-.79,2.22-1.59,3.32-2.4.83-.49,1.66-.99,2.49-1.5.02,0,.04-.03.05-.04h0Z"/>
        <path class="st15" d="M251.71,207.88c.52-.28,1.03-.55,1.55-.83-.83.51-1.65,1.01-2.49,1.5.31-.22.62-.44.93-.66h0Z"/>
        <path class="st15" d="M251.7,207.89c-.31.22-.62.44-.93.66-6.31,3.72-13.03,7.1-19.71,10.43,6.9-3.72,13.77-7.43,20.63-11.1Z"/>
        <path class="st15" d="M226.8,364.71c2.4-1.35,4.83-2.68,7.22-3.97-2.8,1.54-5.17,2.85-7.22,3.97Z"/>
        <path class="st13" d="M223.77,222.64c2.41-1.22,4.85-2.44,7.3-3.66-13.01,7.02-26.16,14.09-39.69,20.99,3.57-1.99,7.12-3.97,10.67-5.92,7.03-3.87,14.56-7.78,21.72-11.41Z"/>
        <path class="st15" d="M207.77,84.64c.1.12.19.24.29.36-.07-.07-.15-.15-.24-.21-.02-.05-.04-.1-.05-.15h0Z"/>
        <path class="st15" d="M213.87,296.68c-3.08,2.46-6.23,4.85-9.3,7.33.67-.65,1.35-1.31,2.04-1.94,1.89-1.73,3.87-3.36,6.01-4.74l1.25-.65h0Z"/>
        <path class="st15" d="M205.29,82.14c.55.34,1.1.67,1.62,1.03.04.04.06.07.09.11.31.41.57.87.76,1.36-.73-.93-1.56-1.76-2.48-2.5Z"/>
        <path class="st15" d="M204.57,304.02c-2,1.6-3.96,3.23-5.85,4.94.65-.72,1.29-1.45,1.9-2.24,2.57-3.38,5.65-6.53,9.59-8.12-1.16,1.2-2.38,2.34-3.63,3.43l.04.05c-.69.64-1.37,1.29-2.04,1.94Z"/>
        <path class="st15" d="M207.83,84.79c-2.98-2.69-6.79-4.28-10.72-5.17-.15-.44-.29-.84-.44-1.23,1.45.27,2.88.65,4.27,1.13,1.58.67,3.06,1.54,4.36,2.61.92.74,1.75,1.58,2.48,2.5.02.05.04.1.05.15h0Z"/>
        <path class="st15" d="M196.57,78.19c1.5.28,2.97.73,4.36,1.33-1.4-.48-2.82-.86-4.27-1.13-.03-.06-.05-.14-.08-.2Z"/>
        <path class="st15" d="M194.51,77.89c.65-.04,1.31-.04,1.94,0,.05.1.08.2.13.31-.69-.15-1.38-.24-2.07-.3h0Z"/>
        <path class="st15" d="M193.32,77.96c.4-.04.79-.05,1.19-.07.69.06,1.38.15,2.07.3.03.06.05.14.08.2-1.11-.21-2.22-.35-3.34-.43Z"/>
        <path class="st15" d="M192.06,315.77c2.06-2.43,4.3-4.68,6.66-6.8-2.14,2.33-4.51,4.37-6.66,6.8Z"/>
        <path class="st11" d="M187.11,79.11c2.81-.51,5.71-.3,8.52.22.49.09.98.19,1.47.3.81,2.44,1.4,5.48,1.13,7.8-.42,3.67-2.06,7.26-4.9,9.61-2.84,2.34-6.93,3.26-10.36,1.9-2.85-1.13-5.39-2.37-6.32-5.3-.93-2.92-.9-2.79-1.28-5.84-.17-1.39-.13-2.75-.2-3.82,1.45-.76,2.92-1.47,4.4-2.16,2.13-.99,4.29-1.95,6.56-2.5.33-.08.65-.15.98-.21Z"/>
        <path class="st15" d="M189.57,77.91c1.55-.15,3.11-.17,4.67-.05.09,0,.17.02.26.03-.4.02-.79.04-1.19.07-1.25-.1-2.5-.11-3.75-.05h0Z"/>
        <path class="st15" d="M186.1,79.19c2.36-.56,4.82-1.03,7.21-1.22,1.12.07,2.23.22,3.34.43.15.39.3.8.44,1.23-.49-.11-.98-.21-1.47-.3-2.81-.52-5.71-.73-8.52-.22-.33.06-.65.13-.98.21l-.03-.13Z"/>
        <path class="st15" d="M191.28,240.03c-10.8,6.02-21.69,11.99-32.97,16.86-5.12,2.21-11.23,4.65-17.08,6.67,17.5-7.39,34.05-15.35,50.06-23.53h0Z"/>
        <path class="st15" d="M174.94,82.63l-.03-.08c1.44-.57,2.97-1.06,4.57-1.51,2.02-.63,4.27-1.29,6.61-1.86l.03.13c-2.27.54-4.43,1.51-6.56,2.5-1.48.69-2.95,1.4-4.4,2.16-.03-.53-.1-.98-.23-1.33h0Z"/>
        <path class="st15" d="M174.44,82.74c1.04-.54,2.11-1.03,3.19-1.51,3.79-1.65,7.84-2.93,11.94-3.33,1.24-.05,2.5-.05,3.75.05-2.4.2-4.85.66-7.21,1.22-2.34.57-4.59,1.23-6.61,1.86-1.61.44-3.13.93-4.57,1.51-.16.05-.33.12-.48.19h0Z"/>
        <path class="st15" d="M185.13,29.14c-4.38.16-8.76.55-13.11,1.01-1.41.15-2.8.3-4.21.46,6.08-.93,11.95-1.42,17.32-1.47Z"/>
        <path class="st15" d="M174.44,82.74c-2.57,1.31-5.03,2.83-7.28,4.63-1.77,1.41-3.42,3-4.62,4.92,2.57-4.41,6.66-7.43,11.89-9.54Z"/>
        <path class="st13" d="M165.52,117.57c1.16,1.71,1.32,3.91,1.12,5.97-.95,9.71-8.72,17.47-17.19,22.31-4.54,2.59-9.25.52-13.21.6-1.01.02-1.56-.51-1.85-1.38.64-2.62.51-5.49.15-8.22h0c.05-1.1.02-2.1-.18-2.92-.6-2.44-1.3-5.03-2.08-7.55-.02-.05-.04-.1-.05-.15-.14-.45-.27-.9-.43-1.34-.15-.5-.32-.99-.5-1.48-.15-.45-.32-.9-.48-1.34-.02-.03-.03-.06-.04-.09-.02-.05-.04-.1-.05-.15-.18-.49-.37-.98-.58-1.47-1.49-3.68-3.31-7.23-5.43-10.6-1.67-2.66-3.58-5.25-6.19-7.01-1.62-1.1-3.28-1.85-5.15-2.21,1.15-3.32,3.57-5.92,5.37-9.38.98-1.87,3.57-5.51,4.84-7.19,2.45-3.25,3.61-6.36,5.66-9.86,2.75-4.7,5.86-6.84,10.79-4.53,8.3,3.9,14.25,12.42,15.07,21.57.34,3.82-.15,7.67.09,11.49.25,3.83,1.41,7.84,4.34,10.32,1.93,1.64,4.55,2.53,5.99,4.63h0Z"/>
        <path class="st15" d="M162.54,92.29c-.08.14-.16.28-.24.43.05-.11.11-.22.17-.32.03-.04.05-.07.07-.11Z"/>
        <path class="st15" d="M161.63,94.04c.19-.45.41-.9.66-1.32-.24.43-.45.87-.66,1.32Z"/>
        <path class="st15" d="M160.85,96.19c.06-.18.15-.36.24-.54-.05.2-.1.41-.14.62-.04-.03-.07-.05-.11-.07h0Z"/>
        <path class="st15" d="M160.95,96.26s.03.02.04.02c-.04.07-.06.15-.08.24,0-.09.03-.17.05-.25Z"/>
        <path class="st15" d="M161.48,94.4c-.15.41-.29.83-.39,1.24-.09.18-.18.36-.24.54-.02,0-.03,0-.04-.02h0c.07-.25.15-.49.24-.73.14-.35.27-.7.43-1.04h0Z"/>
        <path class="st15" d="M160.85,96.19c-.06.13-.12.25-.16.38.04-.14.08-.26.13-.4,0,0,.02,0,.04.02Z"/>
        <path class="st12" d="M160.95,96.26c-.02.08-.04.16-.05.25.02-.08.05-.16.08-.24.35-.94.94-1.82,1.58-2.62,3.3-4.2,7.82-7.2,12.6-9.69.07,1.07.03,2.43.2,3.82.38,3.05.34,2.92,1.28,5.84.93,2.93,3.47,4.16,6.32,5.3,3.43,1.36,7.52.44,10.36-1.9,2.84-2.35,4.48-5.94,4.9-9.61.26-2.32-.33-5.36-1.13-7.8,3.94.89,7.75,2.49,10.72,5.17.08.06.16.14.24.21-.1-.13-.19-.24-.29-.36-.19-.49-.45-.95-.76-1.36-.03-.04-.05-.07-.09-.11-1.24-1.58-3.11-2.55-4.99-3.28-.33-.13-.66-.24-1-.36-1.39-.61-2.86-1.05-4.36-1.33-.05-.11-.08-.21-.13-.31.34,0,.69.02,1.03.05,3.35.26,9.75,3.69,11.15,6.32.83,1.57.02,3.39-.88,4.93-1.34,2.3-2.89,4.5-4.64,6.59-1.25,1.49-2.63,2.96-4.45,3.92-1.79.96-3.89,1.38-5.95,1.77-8.37,1.59-16.78,3-25.18,4.43-.48.08-1,.15-1.45,0-.5-.16-.82-.58-1.11-.96-1.04-1.42-2.09-2.82-3.14-4.23-.51-.68-1.02-1.38-1.21-2.17-.16-.64-.09-1.29.06-1.94.1-.44.1-.44,0,0,.05-.13.1-.25.16-.38.04.03.07.05.11.07h0Z"/>
        <path class="st13" d="M141.19,263.57c-.83.35-1.66.71-2.5,1.05-1.75.73-3.89,1.28-6.23,1.76.33-.15.67-.28,1.04-.38,2.43-.68,5.03-1.52,7.68-2.43Z"/>
        <path class="st15" d="M138.95,298.06c-.02-.22-.04-.44-.06-.64,0,0,0,0,.02,0,.03.22.04.44.05.65Z"/>
        <path class="st12" d="M192.06,315.77c2.15-2.43,4.52-4.47,6.66-6.8,1.89-1.71,3.86-3.35,5.85-4.94,3.07-2.48,6.22-4.87,9.3-7.33l-1.25.65c-2.14,1.38-4.12,3-6.01,4.74l-.04-.05c1.25-1.09,2.47-2.23,3.63-3.43-3.94,1.59-7.02,4.75-9.59,8.12-.61.79-1.24,1.52-1.9,2.24-2.36,2.12-4.6,4.37-6.66,6.8h0ZM137.91,298.17c.34-.24.66-.5.98-.75.03.21.05.43.06.64.44,6.16.44,12.37,1.83,18.36.54,2.32,1.3,4.64,2.71,6.55s3.84,2.91,6.22,3.05c13.29-5.09,43.12-19.66,73.06-35.4-22.23,16.37-47.72,37.6-59.86,62.4-1.35,2.76-7.48,18.98-7.78,20.04v.27c-14.37-.38-28.84-1.22-43.23-2.74-.62-3.21-2.59-11.5-4.44-18.72-1.32-5.07-2.58-9.6-3.28-11.45.93,0,1.86-.18,2.69-.64,1.71-.91,2.72-2.69,3.61-4.4,3.71-7.19,6.41-14.66,7.64-22.67.35-2.34.87-4.11-.07-6.02l.31-.15c6.61-1.71,13.99-4.27,19.54-8.37h0Z"/>
        <path class="st15" d="M137.23,291.92c.4,1.42.73,2.87.99,4.32-.31-1.45-.64-2.89-.99-4.32Z"/>
        <path class="st13" d="M134.53,136.85c.35,2.73.49,5.6-.15,8.22-.62-1.87.04-5.33.15-8.22Z"/>
        <path class="st15" d="M134.35,133.93c.2.82.23,1.82.18,2.91-.03-.18-.05-.35-.07-.53-.48-3.37-1.21-6.69-2.19-9.93.78,2.52,1.48,5.11,2.08,7.55Z"/>
        <path class="st15" d="M132.31,280.12c.88,1.53,1.69,3.12,2.4,4.75-1.08-1.44-2-3-2.4-4.75Z"/>
        <path class="st15" d="M135.85,155.96c-1.33-.73-2.71-1.41-4.12-2.01,1.19.43,2.33.94,3.43,1.57.24.14.47.27.69.44h0Z"/>
        <path class="st13" d="M132.22,126.23c-.14-.45-.28-.9-.43-1.34.15.44.29.89.43,1.34Z"/>
        <path class="st15" d="M132.39,276.87c3.87,4.81,5.56,11.27,6.24,17.49.11,1.02.2,2.03.27,3.05,0,0,0,0-.02,0-.4-3.42-1.24-6.56-2.77-9.83.38,1.43.75,2.87,1.1,4.31-.65-2.4-1.5-4.75-2.5-7.04.28.37.57.73.86,1.09-.85-3.39-2.59-6.57-4.98-9.14.7-.12,1.33-.14,1.8.05Z"/>
        <path class="st13" d="M131.79,124.89c-.16-.5-.34-.99-.5-1.48.18.49.34.98.5,1.48Z"/>
        <path class="st13" d="M130.81,122.07c.16.44.33.89.48,1.34-.16-.45-.32-.9-.48-1.34Z"/>
        <path class="st13" d="M130.72,121.83c-.18-.49-.38-.98-.58-1.47.21.49.4.98.58,1.47Z"/>
        <path class="st15" d="M129.57,277.07c.88,1.01,1.68,2.09,2.38,3.23-.86-1.03-1.68-2.1-2.45-3.21.03,0,.05,0,.07-.02Z"/>
        <path class="st15" d="M138.22,296.24c-.25-1.45-.59-2.89-.99-4.32.34,1.43.68,2.87.99,4.32ZM128.55,277.4c.31-.11.64-.22.95-.32.77,1.11,1.59,2.19,2.45,3.21-.7-1.14-1.5-2.22-2.38-3.23.34-.1.69-.19,1.03-.25,2.4,2.57,4.13,5.74,4.98,9.14-.29-.35-.58-.72-.86-1.09-.72-1.62-1.52-3.21-2.4-4.75.41,1.74,1.32,3.3,2.4,4.75,1.01,2.29,1.85,4.64,2.5,7.04-.34-1.44-.72-2.88-1.1-4.31,1.52,3.27,2.37,6.41,2.77,9.83-.32.25-.64.51-.98.75-.68-3.02-1.54-5.99-2.58-8.9-1.01-2.84-2.19-5.63-3.83-8.17-.86-1.32-1.85-2.57-2.96-3.7Z"/>
        <path class="st15" d="M129.5,277.09c-.09-.14-.19-.28-.27-.42.12.14.24.26.34.4-.03,0-.05.02-.07.02Z"/>
        <path class="st15" d="M131.73,153.96c1.41.6,2.79,1.27,4.12,2.01-.22-.16-.45-.3-.69-.44-1.1-.63-2.24-1.14-3.43-1.57h0ZM129.26,152.27c7.13,2.2,13.6,6.45,18.43,12.12-.34-.29-.68-.57-1.03-.85-6.36-5.14-13.71-8.65-21.35-9.55,1.39-.44,2.7-1.03,3.89-1.8l.05.08Z"/>
        <path class="st16" d="M99.03,295.42c.99-.88,2.01-1.74,3.05-2.6,7.29-5.98,15.83-11.3,24.46-14.64.51-.2,1.22-.5,2.01-.77,1.11,1.13,2.1,2.38,2.96,3.7,1.64,2.53,2.82,5.33,3.83,8.17,1.03,2.91,1.9,5.88,2.58,8.9-5.55,4.09-12.93,6.66-19.54,8.37l-.31.15c-.17-.37-.42-.76-.73-1.15-2.31-2.93-5.84-4.92-9.25-6.33-2.99-1.23-6.1-2.14-9.27-2.71l.17-.96c-.05,0-.05-.03.05-.11h0Z"/>
        <path class="st15" d="M129.23,276.67c-.11-.15-.22-.31-.32-.46-.24-.37-.47-.76-.54-1.18-.02-.1-.03-.2-.03-.31.81.64,1.56,1.34,2.26,2.1-.34.06-.68.15-1.03.25-.11-.14-.23-.26-.34-.4Z"/>
        <path class="st15" d="M129.23,276.67c-2.28-2.51-5.06-4.56-8.15-5.96,2.67.95,5.11,2.39,7.29,4.32.07.42.31.81.54,1.18.1.15.21.31.32.46Z"/>
        <path class="st15" d="M128.55,267.77c-1.29.05-3.87.88-5.14,1.06-2,.29-3.33.14-4.67.24,4.32-1.13,9.35-1.79,13.74-2.69-1.32.57-2.35,1.33-3.92,1.39h0Z"/>
        <path class="st15" d="M120.72,270.55c.12.05.24.1.35.16-1.2-.43-2.45-.76-3.74-1,1.26.09,2.22.34,3.38.83Z"/>
        <path class="st13" d="M118.52,102.75c2.6,1.76,4.52,4.36,6.19,7.01,2.12,3.37,3.95,6.91,5.43,10.6-3.35-8.03-9.26-15.49-16.87-19.58.03-.08.05-.16.09-.24,1.87.36,3.53,1.12,5.15,2.21Z"/>
        <path class="st11" d="M118.97,142.75c-1.27.11-2.77-5.18-3.35-11.82s-.03-12.11,1.24-12.23c1.26-.11,2.76,5.19,3.34,11.83.58,6.63.03,12.11-1.23,12.22Z"/>
        <path class="st13" d="M117.27,269.48c-.81.24-1.58.51-2.31.81.07-.05.14-.08.21-.12,1.42-.77,2.5-1.02,3.57-1.1-.5.13-.98.26-1.46.41h0Z"/>
        <path class="st15" d="M167.81,30.61c-18.6,2.83-39.2,9.7-53.89,20.17h0c2.09-1.68,4.16-3.26,6.25-4.73,6.72-4.06,13.8-7.51,21.13-10.32,8.61-2.62,17.55-4.08,26.52-5.12h0Z"/>
        <path class="st15" d="M114.55,91.33s-.03.05-.04.07c-.12.2-.24.39-.36.59,0-.03,0-.05-.02-.07.07-.51.13-1.04.17-1.6.09.34.17.67.24,1.01Z"/>
        <path class="st11" d="M107.4,82.64c3.25,2.18,5.88,5.46,6.74,9.27-.36,2.68-1.12,4.78-3.51,6.7-1.11.88-4.29,1.28-5.7,1.36-.99.06-3.1.37-4.03.04-3.53-1.29-5.17-3.79-6.43-7.26-1.27-3.46.25-10.76,2.4-13.79.06-.09.08-.15.08-.18,3.7.62,7.35,1.77,10.45,3.86Z"/>
        <path class="st15" d="M113.59,50.27c.31-.22.63-.44.94-.64.43-.29.86-.58,1.29-.86,1.42-.93,2.88-1.84,4.34-2.72-2.1,1.47-4.16,3.05-6.25,4.73-.09-.17-.2-.34-.32-.5Z"/>
        <path class="st15" d="M113.91,50.77h0c-.05.04-.11.08-.17.13.05-.05.11-.1.16-.14h0Z"/>
        <path class="st15" d="M111.42,272.23c.98-.77,2.19-1.41,3.54-1.95-3.32,1.84-6.88,5.22-9.62,9.08,1.72-2.69,3.73-5.27,6.08-7.13h0Z"/>
        <path class="st14" d="M118.97,142.75c1.26-.11,1.81-5.59,1.23-12.22-.58-6.64-2.08-11.94-3.34-11.83-1.27.12-1.82,5.59-1.24,12.23s2.08,11.93,3.35,11.82ZM96.43,142.38c1.27.11,2.77-5.18,3.35-11.82s.03-12.11-1.24-12.23c-1.26-.11-2.76,5.19-3.34,11.83-.58,6.63-.03,12.11,1.23,12.22ZM96.43,153.62c-1.17-.34-2.3-.77-3.38-1.31-.04-.05-.1-.08-.17-.09h0c-1.21-.62-2.34-1.37-3.38-2.3-2.18-1.96-3.73-4.6-4.37-7.45-.69-3-.39-6.13.05-9.17.67-4.59,1.66-9.14,2.97-13.59,1.74-5.93,4.36-12.09,9.39-15.6.28-.2.56-.38.86-.56,3.25-1.95,7.08-2.63,10.82-3.18.19-.03.37-.05.56-.08h.03c1.29-.06,2.46.02,3.57.24-.04.08-.06.16-.09.24,7.6,4.09,13.52,11.55,16.87,19.58.2.49.4.98.58,1.47.02.05.04.1.05.15,0,.03.02.06.04.09.16.44.32.89.48,1.34.16.49.34.98.5,1.48.15.44.29.89.43,1.34.02.05.04.1.05.15.98,3.25,1.71,6.57,2.19,9.93.03.17.05.34.07.53h0c-.12,2.9-.77,6.36-.15,8.23-.27,1.11-.68,2.17-1.26,3.16-.97,1.66-2.32,2.96-3.91,3.96-1.19.76-2.5,1.35-3.89,1.8-2.34.77-4.87,1.16-7.29,1.31-3.84.24-7.69.08-11.53-.16-3.3-.21-6.73-.54-9.91-1.45.02-.04.03-.1-.03-.1-.05,0-.09.03-.14.05Z"/>
        <path class="st15" d="M100.86,339.7c1.06.44,2.2.72,3.32.73.7,1.85,1.96,6.38,3.28,11.45l-.15.04c-1.61-4.33-3.78-8.44-6.44-12.21Z"/>
        <path class="st16" d="M75.6,333.47c-1.56.37-2.88.51-3.97,1.03l-.41-.56c-1.08-.52-1.49-1.83-1.76-3-2.01-8.69-2.64-17.71-1.86-26.6.07-.82.16-1.66.59-2.37.43-.69,1.13-1.15,1.85-1.53.16-.09.34-.17.51-.25,7.1-3.38,15.07-4.84,22.92-4.34,1.79.11,3.57.33,5.34.65,3.18.57,6.29,1.48,9.27,2.71,3.4,1.42,6.93,3.4,9.25,6.33.31.39.55.78.73,1.15.94,1.91.43,3.68.07,6.02-1.22,8.01-3.93,15.48-7.64,22.67-.89,1.71-1.91,3.49-3.61,4.4-.83.45-1.76.64-2.69.64-1.12,0-2.26-.29-3.32-.73-.29-.13-.57-.25-.84-.4-2.12-1.11-3.92-2.74-5.97-3.96-5.53-3.28-12.35-3.3-18.45-1.87h0Z"/>
        <path class="st13" d="M105.3,279.42c-1.07,1.68-2.04,3.4-2.92,5.02.78-1.71,1.78-3.4,2.92-5.02Z"/>
        <path class="st15" d="M101.16,290.19c0-.47,0-.94.04-1.43,0,.48,0,.96-.04,1.43Z"/>
        <path class="st15" d="M100.6,290.88c.08-5.04-2.24-11.69-4.06-16.84,2.47,4.32,4.16,8.77,4.29,13.21.48-.86.99-1.8,1.52-2.77-.99,2.17-1.62,4.36-1.75,6.4Z"/>
        <path class="st11" d="M96.43,142.38c-1.26-.11-1.81-5.59-1.23-12.22.58-6.64,2.08-11.94,3.34-11.83,1.27.12,1.82,5.59,1.24,12.23s-2.08,11.93-3.35,11.82Z"/>
        <path class="st15" d="M96.94,78.79s-.08-.02-.13-.02c.06-.03.12-.03.13.02Z"/>
        <path class="st15" d="M96.86,78.97c-.35,0-.19-.15-.05-.2h0s.08,0,.13.02c0,.04-.02.09-.08.18Z"/>
        <path class="st15" d="M96.56,153.58c.05,0,.05.06.03.1-.05-.02-.11-.03-.16-.05.05-.02.09-.05.14-.05Z"/>
        <path class="st15" d="M91.7,268.99c.68.29,1.33.65,1.94,1.1-.66-.33-1.32-.7-1.94-1.1Z"/>
        <path class="st15" d="M92.87,152.22c.07,0,.14.05.17.09-.05-.03-.12-.05-.17-.09Z"/>
        <path class="st15" d="M160.81,96.16h0c-.05.15-.09.27-.13.41-.02.09-.02.09,0,0-.15.65-.23,1.3-.06,1.94.19.79.7,1.49,1.21,2.17,1.05,1.41,2.1,2.81,3.14,4.23.29.38.61.8,1.11.96.45.15.97.08,1.45,0,8.4-1.42,16.81-2.84,25.18-4.43,2.06-.39,4.16-.81,5.95-1.77,1.82-.96,3.2-2.43,4.45-3.92,1.74-2.09,3.29-4.29,4.64-6.59.9-1.53,1.71-3.36.88-4.93-1.4-2.63-7.8-6.06-11.15-6.32-.34-.03-.68-.05-1.03-.05-.64-.03-1.29-.03-1.94,0-.09,0-.17-.02-.26-.03-1.56-.13-3.12-.1-4.67.05-4.1.4-8.15,1.68-11.94,3.33-1.08.47-2.15.97-3.19,1.51-5.24,2.11-9.33,5.14-11.89,9.54-.03.04-.05.07-.07.11-.06.1-.13.21-.17.32-.25.43-.47.87-.66,1.32-.05.12-.11.24-.15.36-.15.34-.29.69-.43,1.04-.09.24-.17.47-.24.72h0ZM79.48,121.16c3.67-11.83,6.26-24.22,10.36-35.87,2.64-7.51,5.92-14.73,10.5-21.28,3.39-4.84,7.99-9.23,13.41-13.1.06-.05.12-.09.17-.13,14.7-10.47,35.29-17.34,53.89-20.17,1.41-.16,2.8-.32,4.21-.46,4.35-.45,8.73-.84,13.11-1.01.05,0,.08,0,.13,0,7.25-.27,14.48.07,21.52,1.73,11.33,2.68,22.5,9.84,27.98,20.11,1.88-4.67,4.75-7.92,9.26-7.91,4.53.02,8.66,2.49,12.33,5.13,10.53,7.56,19.58,17.19,26.46,28.18,1.42,2.28,2.77,4.65,3.38,7.26.64,2.73.44,5.57.15,8.36-.85,8.51-2.38,16.95-4.55,25.21,5.86,14.28,11.11,28.82,15.7,43.56-.68.06-1.33.23-1.96.5.23-1.07.37-2.14.43-3.2.06-1.32-2.14-4.34-2.97-5.37-.64-.81-.67-1.42-1.67-1.66-7.37-1.78-16.47,7.03-20.79,13.26-6.7,9.66-12.12,20.94-22.21,26.98-6.62,3.96-14.48,5.16-22,6.92-14.73,3.46-28.87,9.4-41.65,17.49-9.79,6.2-18.76,13.64-28.71,19.59s-21.22,10.44-32.8,9.9c-10.77-.52-20.81-5.31-30.5-10.04-2.04-1-5.98-3.68-9.67-5.63.45.15.92.27,1.38.39,4.99,1.29,10.18,1.76,15.32,1.39,4.53.57,9.1.85,13.66.83.25,0,2.14-.07,4.78-.18v-.16c-2.53.05-5.05-.2-7.58-.38-3.81-.28-7.55-1.13-11.29-1.87-4.06-.8-8.17-1.48-12.08-2.85-2.76-.97-5.38-2.28-7.92-3.74.02-.2,0-.4-.07-.58-.49-1.27-3.16-2.53-4.22-3.38-1.53-1.22-3.01-2.51-4.43-3.87-5.56-5.35-10.14-11.89-12.19-19.4-2.67-9.78-.84-20.28,2.6-29.84,1.3-2.89,2.68-5.74,4.03-8.59,3.69-7.8,7.19-15.71,10.23-23.79,1.54-4.06,2.98-8.17,4.26-12.32ZM92.77,81.45c-2.01,5.4-5.91,11.77-4.66,17.14.15.64.1.71.55,1.18.8.82,1.4,1.15,1.61,1.2,2.58.54,4.75,2.3,7.25,3.15h0c-5.03,3.51-7.65,9.67-9.39,15.61-1.31,4.45-2.3,9-2.97,13.59-.44,3.04-.74,6.17-.05,9.17.64,2.85,2.2,5.49,4.37,7.45,1.03.93,2.17,1.68,3.38,2.3h0c.05.04.12.06.17.09,1.08.54,2.21.96,3.38,1.31.05.03.11.04.16.05,3.18.92,6.61,1.24,9.91,1.45,3.84.24,7.69.4,11.53.16,2.41-.15,4.94-.54,7.29-1.31,7.64.91,14.99,4.41,21.35,9.55.34.28.69.56,1.03.85-4.83-5.67-11.3-9.93-18.43-12.12l-.05-.08c1.59-1,2.94-2.3,3.91-3.96.58-.99.99-2.05,1.26-3.16.29.87.84,1.4,1.85,1.38,3.96-.08,8.67,1.99,13.21-.6,8.47-4.84,16.24-12.6,17.19-22.31.2-2.06.05-4.26-1.12-5.97-1.43-2.1-4.06-2.99-5.99-4.63-2.93-2.48-4.08-6.49-4.34-10.32-.24-3.82.24-7.67-.09-11.49-.82-9.15-6.77-17.67-15.07-21.57-4.93-2.31-8.04-.17-10.79,4.53-2.05,3.5-3.21,6.61-5.66,9.86-1.27,1.68-3.87,5.32-4.84,7.19-1.81,3.47-4.22,6.06-5.37,9.38-1.11-.22-2.28-.3-3.57-.24.52-.08,1.03-.15,1.56-.24v-.08c2.33-.56,2.63-.83,3.44-4.67.22-1.03.09-2.48-.24-3.98-.07-.34-.15-.67-.24-1.01-.6-2.14-1.56-4.26-2.51-5.42-3.38-4.09-9.17-5.2-13.94-6.59-1.3-.38-2.75.16-3.93.83-1.01.56-.76,1.22-1.16,2.3h0Z"/>
        <path class="st13" d="M83.95,257.34c-1.18-1.38-2.18-2.8-3.02-4.28.06.1.13.19.2.28,2.17,2.89,5.25,5.63,7.67,8.32,3,3.36,5.86,7.11,7.48,11.66.08.24.17.48.26.73-3.39-5.93-8.26-11.63-12.58-16.7h0Z"/>
        <path class="st16" d="M64.29,362.79l.11-.47c-.02-1.07,1.22-13.23,1.74-15.55.78-3.43,1.71-6.91,3.31-10.05.6-1.17,1.32-1.81,2.18-2.21,1.1-.53,2.41-.66,3.97-1.03,6.1-1.43,12.92-1.42,18.45,1.87,2.05,1.22,3.85,2.86,5.97,3.96.27.15.55.27.84.4,2.66,3.77,4.84,7.88,6.44,12.21l.15-.04c1.85,7.21,3.82,15.51,4.44,18.72-16.06-1.68-32.02-4.18-47.61-7.8h0Z"/>
        <path class="st13" d="M78.99,227.73c1.22.4,2.59,1.03,3.99,1.77-1.41-.43-2.78-.98-3.99-1.77Z"/>
        <path class="st15" d="M82.98,229.5c-1.41-.74-2.78-1.37-3.99-1.77-.23-.15-.45-.3-.67-.47.07-.48.15-.95.24-1.43,3.05,1.6,6.41,2.59,9.78,3.39,3.74.89,7.52,1.58,11.33,2.06-5.14.37-10.33-.1-15.32-1.39-.46-.12-.93-.24-1.38-.39h0Z"/>
        <path class="st15" d="M81.93,111.58c-5.23,5.35-11.88,8.35-18.42,12.07-.08-1.34-.15-2.68-.2-4.01.57-8.95,1.18-17.92,2.68-26.75,2.83-12.42,7.06-22.79,15.06-34.13,3.87-5.48,8.85-10.55,15.24-12.58,6.15-1.96,13.7-1.12,17.3,4.1-4.65,3.21-9.04,6.84-12.52,11.27-5.45,6.91-8.41,15.41-11.28,23.73l.05.02c-4.1,11.65-6.7,24.04-10.36,35.87-1.28,4.15-2.71,8.26-4.26,12.32h0c2.69-7.15,4.75-14.51,6.71-21.9h0Z"/>
        <path class="st15" d="M88.34,229.22c-3.37-.81-6.73-1.8-9.78-3.39.06-.34.14-.67.22-1.01,0-.04.02-.06.03-.1.05-.18.11-.37.18-.57.13-.4.26-.82.27-1.22,2.54,1.46,5.16,2.77,7.92,3.74,3.91,1.37,8.01,2.05,12.08,2.85,3.74.73,7.48,1.59,11.29,1.87,2.52.18,5.04.44,7.57.38v.16c-2.63.11-4.52.18-4.77.18-4.56.02-9.14-.26-13.66-.83-3.81-.48-7.59-1.17-11.33-2.06h0Z"/>
        <path class="st16" d="M70.04,300.43c-3.19-2.95-2.99-9.35-5.2-13.15l-.75-.05c1.45-2.5,2.99-4.95,4.71-7.29,2.78-3.77,6.03-7.28,9.82-9.98l.12.17c.14.12.27.23.41.35,7.5,6.4,12.67,15.48,14.34,25.21v.15c-7.86-.5-15.83.95-22.93,4.34-.17.08-.34.16-.51.25h0Z"/>
        <path class="st15" d="M77.75,244.7c.65,2.95,1.68,5.73,3.18,8.36-1.84-2.56-2.76-5.38-3.18-8.36Z"/>
        <path class="st15" d="M76.42,222.57c.84.55,1.7,1.08,2.57,1.58-.07.2-.14.39-.18.57-.77-.75-1.57-1.46-2.39-2.15h0Z"/>
        <path class="st15" d="M78.32,227.26c.22.17.44.33.67.47-.24-.07-.48-.15-.71-.2,0-.09.03-.18.04-.27Z"/>
        <path class="st13" d="M76.77,237.38c-.18-3.37-4.97-9.27-.63-10.03.6-.1,1.32-.03,2.13.18l-.11.84c-.25,2.32-.3,4.65-.32,6.99,0,.18-.51.5-.51.68-.03,2.97-.03,5.88.4,8.66-.53-2.33-.83-4.77-.97-7.31h0Z"/>
        <path class="st15" d="M75.22,133.48c-3.05,8.07-6.54,15.99-10.23,23.79-1.35,2.85-2.73,5.7-4.03,8.59.11-.32.23-.63.34-.94,3.67-9.83,8.9-18.99,12.84-28.7.37-.91.73-1.82,1.07-2.74h0Z"/>
        <path class="st12" d="M66.14,346.77c-.53,2.32-1.76,14.48-1.74,15.55l-.11.47c-2.19-.51-4.37-1.03-6.54-1.6l.17-.67c-1.43-15.81-3.08-46.37,0-61.94l-.02-.02c.32-.47.6-.99.86-1.49,1.73-3.3,3.46-6.62,5.33-9.84l.75.05c2.21,3.79,2.01,10.2,5.2,13.15-.73.38-1.42.84-1.85,1.53-.43.71-.52,1.55-.59,2.37-.78,8.89-.15,17.91,1.86,26.6.27,1.17.68,2.49,1.76,3l.41.56c-.86.4-1.58,1.04-2.18,2.21-1.61,3.14-2.53,6.62-3.31,10.05h0Z"/>
        <path class="st15" d="M65.99,92.89c-1.5,8.83-2.1,17.8-2.68,26.75-.24-5.58-.2-11.07.73-16.63.59-3.55,1.22-6.9,1.95-10.12Z"/>
        <path class="st10" d="M55.47,300.33c.27.05.54-.05.78-.17.69-.37,1.22-.94,1.65-1.6l.02.02c-3.08,15.57-1.43,46.13,0,61.94l-.17.67c-3.5-.88-6.99-1.83-10.44-2.85-4.55-7.4-8.13-31.53-9.83-40.04-.63-3.12-1.04-6.36-.39-9.47.67-3.21,2.44-6.09,4.38-8.74,2.39-3.26,5.06-6.29,8-9.05l.39-.16c1.27,3.08,2.87,6.01,4.75,8.73.22.32.48.65.85.72h0Z"/>
        <path class="st15" d="M66.18,214.28c-5.34-4.99-10.12-13.54-10.93-21.42h-.04c-.28-2.88-.26-5.78.09-8.66.78-6.39,3.03-12.44,5.66-18.35-3.45,9.56-5.27,20.06-2.6,29.84,2.04,7.51,6.62,14.05,12.19,19.4,1.42,1.36,2.89,2.65,4.43,3.87,1.06.84,3.73,2.1,4.22,3.38.07.18.09.38.07.58,0,.4-.15.82-.27,1.22-.87-.5-1.72-1.03-2.57-1.58-3.36-2.82-7.04-5.29-10.24-8.28Z"/>
        <path class="st10" d="M37.48,318.31c1.7,8.51,5.28,32.64,9.83,40.04-7.06-2.07-14.02-4.4-20.84-7.01-.09-1.85-.62-12.38-.23-14.37.07-.34.22-3.31.26-3.67,2.36-19.24,9-37.95,19.3-54.37.21-.34.42-.67.64-1.01h.12c.02.14.03.27.05.42.5,4.32,1.61,8.56,3.27,12.56l-.39.16c-2.94,2.76-5.62,5.79-8,9.05-1.94,2.65-3.71,5.53-4.38,8.74-.65,3.11-.24,6.35.39,9.47Z"/>
        <path class="st15" d="M63.64,246.19c-4.93,7.63-9.85,15.26-14.79,22.89-.81,1.25-1.63,2.53-2.05,3.96-.46,1.57-.41,3.23-.24,4.85h-.12c-.22.34-.43.68-.64,1.02-.27-4.04,1.25-8.33,2.96-12.13,1.91-4.27,4.06-8.45,6.4-12.49,2.13-3.67,4.46-7.29,7.5-10.26,1.35-1.32,3.59-2.68,5.97-3.72l.15.35c-.34.15-.64.32-.87.48-1.81,1.26-3.07,3.18-4.27,5.04h0Z"/>
      </g>
      <g>
        <path class="st3" d="M325.67,212.89s0,0,0,.02"/>
        <path class="st3" d="M137.23,291.92s0,0,0-.02"/>
      </g>
    </g>
  </g>
  <g id="Layer_3">
    <g>
      <path class="st9" d="M233.68,64.72c-.98,7.03-1.1,14.17-.38,21.2.12,1.92.79,2.43,2.43,3.34,10.88,6.38,20.47,14.78,29.3,23.72,5.07,5.08,9.84,10.42,14.63,15.69l-4.36.83c3.14-9.43,5.48-19.13,6.92-28.96.36-2.46.65-4.92.9-7.39.33-3.63.74-6.69-.37-9.9-1.16-3.2-3.33-6.17-5.25-9.03-5.62-8.01-12.47-15.15-20.19-21.13-4.41-3.35-8.39-6.51-13.09-6.72-3.41-.1-5.08,2.63-6.44,5.82l-2.59,6.46-3.28-6.14c-5.13-9.55-15.25-16.15-25.71-18.78-11.11-2.76-22.84-2.24-34.28-1.23-11.63.94-23.25,2.39-34.38,5.93-11.18,3.5-20.87,10.51-30.05,17.69,14.56-14.14,26.25-21.25,46.32-25.34,5.84-1.23,11.73-2.14,17.62-2.89,11.91-1.44,24.16-2.52,36.1.2,12.26,2.89,23.87,10.04,30.08,21.39l-5.85.32c6.17-15.51,19.54-10.32,29.65-1.98,10.33,8.07,19.11,18.05,25.64,29.41,4.52,7.41,2.2,16.35,1.11,24.25-1.88,11.62-5.27,22.98-9.56,33.93-5.47-6.55-11.05-13.13-16.69-19.46-8.26-9.17-17.12-17.85-27.34-24.81-.69-.5-1.62-1.01-2.3-2.01-.68-1.05-.73-2.17-.76-3.07-.21-7.18.54-14.36,2.2-21.33h0Z"/>
      <path class="st9" d="M299.19,162.86c-2.95,10.12-11.55,16.97-18.96,23.87-7.61,6.92-15.47,13.65-24.17,19.23-13.01,8.44-27.35,14.35-40.89,21.77-13.32,6.98-27.45,15.18-40.71,22.08-14.84,7.81-30.35,14.44-46.54,18.94-1.08.4-2.79.34-3.95.49-1.19.06-2.61.24-3.77.44-3.72.52-7.25,1.87-9.81,4.67-5.17,5.24-9.17,12.51-9.23,19.92l-1.65-.03c.34-10.81-2.82-22.35-10.41-30.28-6.04-5.78-11.96-12.93-12.77-21.63-.21-4.24-.11-8.56.68-12.76.08-.86.68-1.94.64-2.77-.82-1.58-3.17-2.25-4.45-3.55l-.8-.7c-15.4-12.69-20.25-28.43-14.6-47.59,3.11-10.89,8.75-20.69,13.27-30.85,9.25-20.39,11.73-43.14,20.67-63.67,4.46-10.16,10.11-20.33,19.07-27.18-8.86,6.95-14.35,17.16-18.68,27.36-4.31,10.33-7.07,21.17-9.82,31.98-2.78,10.82-5.68,21.69-10.25,31.96-4.49,10.25-10.02,20.06-12.99,30.77-5.46,19.41-.47,34.11,15.08,46.75,1.56,1.62,5.85,2.68,4.88,5.82-1.4,4.57-1.33,9.53-1.16,14.27.83,8.38,6.5,15.02,12.38,20.66,7.96,8.3,11.28,20.18,10.89,31.48l-1.65-.03c.13-8.1,4.25-15.47,9.76-21.09,2.77-3.01,6.7-4.54,10.67-5.07,1.19-.21,2.69-.38,3.89-.44l1.94-.15c1.86-.15,3.57-.87,5.41-1.42,4.95-1.4,9.8-3.01,14.6-4.83,23.82-9.08,46.15-22.9,68.86-34.57,13.58-7.29,27.96-13.16,40.99-21.41,8.71-5.44,16.63-12.05,24.32-18.86,7.49-6.81,16.15-13.52,19.22-23.58h.03Z"/>
      <path class="st9" d="M76.16,224.19c4.87,2.2,9.93,3.05,15.11,3.96,5.15.84,10.27,1.98,15.51,2.43,4.56.53,11.17.37,15.81.32,2.6-.03,9.42-.09,11.94-.17.58-.02,2.4-.08,2.98-.13.31-.02.7-.06.91-.12l.19.27c-1.13.41-2.84.48-4.02.68-14.43,1.38-29.73,3.4-44,0-5.17-1.35-10.68-3.13-14.6-6.97l.19-.27h0Z"/>
      <path class="st7" d="M281.56,116.66c6.6,16.01,12.41,32.35,17.42,48.94"/>
      <path class="st9" d="M115.63,130.92c.29,3.12.91,6.27,2.16,9.15.34.68.65,1.5,1.26,1.91.02,0-.02-.06-.15-.06s-.19.04-.2.03c.8-3.66.03-7.56-.16-11.28-.46-3.69-.39-7.67-1.81-11.12.03.03.38-.02.34-.1-.53.51-.7,1.37-.92,2.1-.73,3.05-.8,6.26-.54,9.38h0ZM115.63,130.92c.03-2.06-2.12-14.92,2.1-12.84,4.54,4.21,5.58,19.29,2.61,24.62-.59,1.03-1.94,1.21-2.6.13-1.01-1.71-1.14-3.72-1.45-5.62-.28-2.1-.48-4.2-.66-6.3h0Z"/>
      <path class="st9" d="M95.18,130.15c-.25,3.12-.19,6.33.54,9.38.21.73.38,1.59.92,2.1.02,0,0-.06-.14-.09s-.19,0-.2,0c1.42-3.46,1.33-7.43,1.8-11.13.18-3.72.94-7.62.15-11.27,0,0,.07.04.2.03.13,0,.17-.05.15-.06-.61.41-.93,1.22-1.26,1.91-1.24,2.88-1.87,6.02-2.16,9.15h0ZM95.18,130.15c.38-2.02.5-15.05,4.31-12.28,3.74,4.94,2.14,19.96-1.71,24.7-.76.91-2.12.85-2.59-.33-.7-1.86-.48-3.87-.45-5.78.09-2.12.25-4.22.44-6.31h0Z"/>
      <path class="st3" d="M297.14,161.49c2.23-1.32,5.21-.64,7.26.94s3.37,3.91,4.58,6.2c6.56,12.3,11.79,25.32,15.58,38.74.66,2.35,1.29,4.76,1.11,7.19-.25,3.39-2.04,6.47-4,9.25-6.1,8.66-14.18,15.73-22.54,22.26-23.24,18.15-121.88,69.4-149.41,79.95-2.38-.14-4.81-1.13-6.22-3.05-1.42-1.91-2.18-4.23-2.71-6.55-1.67-7.2-1.34-14.71-2.15-22.07-.81-7.36-3.02-15.02-8.56-19.93-1.51-1.33-3.2-2.42-4.9-3.5-.16-.11-5.19-1.91-5-1.86,2.07.51,4.74,1.52,4.56,1.61"/>
      <path class="st3" d="M76.84,240.01c-1.88-1.18-7.11-.13-8.93,1.14s-3.07,3.18-4.27,5.04c-4.93,7.63-9.85,15.26-14.79,22.89-.81,1.25-1.63,2.53-2.05,3.97-.5,1.71-.4,3.52-.2,5.28.87,7.61,3.66,15,8.02,21.29.22.32.48.65.85.72.26.05.54-.05.78-.18,1.19-.63,1.89-1.89,2.51-3.08,3.08-5.86,6.12-11.79,10.03-17.13s8.8-10.12,14.77-12.94c1.01-.48,2.08-.91,3.18-.93s6.49,2.17,7.11,3.09"/>
      <path class="st5" d="M82.27,111.23c-5.29,5.57-12.09,8.6-18.75,12.41-.43-6.97-.62-13.75.53-20.64,2.85-17.23,6.94-29.98,17.01-44.25,3.87-5.48,8.85-10.55,15.24-12.58s14.29-1.05,17.71,4.72"/>
      <path class="st3" d="M222.77,290.62c-22.24,16.38-47.73,37.6-59.86,62.4-1.35,2.76-7.48,18.98-7.78,20.04"/>
      <path class="st5" d="M323.4,220.85c12.43,13.57,21.94,29.8,27.71,47.28.39,1.18.73,2.59-.04,3.57-.61.79-1.7.98-2.69,1.12-14.91,2.09-29.86,4.16-44.91,4.77-7.49.3-14.8,1.24-22.27.63-2.35-.2-8.46-.14-9.39-2.39-.81-1.96-2.79-7-3.8-9.25"/>
      <path class="st7" d="M345.95,273.49c12.66,22.08,21.98,46.06,27.56,70.9"/>
      <path class="st3" d="M64.83,287.29c2.34,4,1.99,10.92,5.76,13.61"/>
      <path class="st3" d="M93.48,295.69c-1.69-9.9-7.02-19.14-14.75-25.57.48.36.23-.36.71,0"/>
      <path class="st3" d="M132.39,276.86c-1.4-.57-4.45.76-5.85,1.31-9.86,3.82-19.61,10.23-27.51,17.25-.27.24.18.04.54,0"/>
      <path class="st3" d="M138.91,297.39c-5.65,4.55-13.53,7.32-20.55,9.14"/>
      <path class="st3" d="M64.4,362.32c-.02-1.07,1.22-13.23,1.74-15.55.78-3.43,1.7-6.91,3.31-10.05,1.37-2.67,3.38-2.6,6.15-3.25,6.1-1.43,12.92-1.42,18.44,1.87,2.05,1.22,3.86,2.85,5.97,3.96,2.11,1.11,4.76,1.62,6.87.5,1.7-.91,2.72-2.69,3.6-4.41,3.71-7.19,6.41-14.66,7.64-22.67.43-2.8,1.08-4.79-.8-7.18-2.31-2.94-5.84-4.92-9.25-6.33-11.9-4.94-25.9-4.58-37.54.97-.91.44-1.84.93-2.36,1.79-.43.7-.52,1.55-.59,2.37-.78,8.89-.15,17.91,1.86,26.6.27,1.17.68,2.48,1.76,3"/>
      <path class="st3" d="M111.99,371.07c-.82-4.65-6.13-26.35-7.84-30.75"/>
      <path class="st3" d="M57.29,300.18l.64-1.6c-3.08,15.57-1.43,46.13,0,61.94"/>
      <path class="st3" d="M49.47,291.04c-2.94,2.76-5.63,5.8-8,9.05-1.94,2.65-3.71,5.53-4.38,8.74-.65,3.11-.24,6.35.39,9.47,1.7,8.51,5.29,32.65,9.84,40.05"/>
      <path class="st4" d="M46.43,277.91c-10.66,16.67-17.53,35.74-19.93,55.38-.05.35-.19,3.32-.26,3.67-.44,2.18.24,14.64.24,14.64"/>
      <path class="st9" d="M125.16,84.76c2.2,2.3,1.9,6.03.96,8.85-.83,2.01-2.94,2.99-4.77,3.89-6.34,3.56-14.22,2.7-20.72,5.52-7.71,3.37-10.53,11.99-12.54,19.57-1.37,5.84-2.91,11.94-2.51,17.96.51,6.02,5.23,10.73,10.99,12.26,3.82,1.14,7.9,1.42,11.99,1.65,8.32.28,19.71,1.12,24.33-7.29,4.24-9.51-3.18-28.92-8.55-37.39-2.96-5.3-8.16-9.87-14.57-9.46,9.15-.88,14.5,7.36,18.25,14.45,3.85,7.32,6.36,15.33,7.32,23.6.21,2.08.24,4.22-.17,6.33-1.1,6.78-8,10.34-14.26,11.07-4.18.57-8.33.47-12.45.28-6.12-.34-12.92-.66-18.16-4.43-3.56-2.5-5.9-6.61-6.29-10.92-.4-6.3,1.22-12.44,2.67-18.49,2.05-7.81,5.43-16.85,13.52-20.17,3.93-1.63,8.12-1.93,12.15-2.54,4.05-.5,7.97-1.8,11.47-3.87,1.82-1.06,2.53-3.08,2.66-5.1.25-2,.14-4.23-1.33-5.76h.02Z"/>
      <path class="st9" d="M139.79,114.25c13.21,12.38,27.4,24.69,41.53,36.06-15.66-9.64-29.78-21.91-41.53-36.06h0Z"/>
      <path class="st9" d="M125.42,153.15c16.76,2.37,29.51,15.69,37.44,29.8-8.31-13.62-21.14-26.34-37.64-28.14l.2-1.66h0Z"/>
      <path class="st9" d="M92.35,152.78c.09.17.29.26.36.26.05,0,.06,0,.03,0-1.03.28-1.97.99-2.89,1.56-3.51,2.15-6.77,4.76-9.37,7.99-3.52,4.26-6.21,9.21-8.12,14.44,2.69-8.62,7.5-17.04,14.97-22.41,1.62-1.09,3.21-2.65,5.14-3.21.44-.1,1.03,0,1.33.53l-1.45.83h0Z"/>
      <path class="st9" d="M179.51,81.13c-8.31,2.09-16.9,7.36-18.61,16.33-.14,1.16.58,2.12,1.36,3.12l2.28,3.01c.73.82,1.14,2.12,2.43,1.88l7.39-1.35c5.09-1.06,17.33-2.91,22.11-4.34,2.33-.73,4.11-2.3,5.65-4.16,2.2-2.76,4.69-5.85,5.87-9.15,1.16-3.42-7.4-7.39-10.11-7.92-6.19-.79-12.43.83-18.39,2.57h0ZM179.46,80.97c4.82-1.51,9.66-3.05,14.73-3.51,2.54-.29,5.3-.04,7.66,1.03,3.17,1.46,8.89,3.97,7.81,8.4-1.26,3.84-3.8,6.76-6.27,9.83-3.56,4.61-8.65,5.19-13.94,6l-14.9,2.5-7.48,1.23c-1.61.32-2.49-1.22-3.26-2.3l-2.23-3.05c-.77-1.02-1.62-2.31-1.42-3.68,1.92-9.13,10.91-14.24,19.29-16.43h0Z"/>
      <path class="st9" d="M111.33,99.9c.69-.19,1.42-.34,1.93-.8s.73-1.16.91-1.84c.91-2.76.39-5.66-.65-8.31-1.31-4.21-4.92-6.79-9-8.09-1.93-.68-4.2-1.22-6.21-1.76-1.48-.59-3.18-.03-4.35.91-.27.4-.29,1.28-.54,1.81l-.38,1.03c-1.83,5.15-5.29,10.38-4.2,16.02.1.42.78.95,1.11,1.26.15.12.27.21.42.28-.02,0,.02,0,.07.03l.27.08c2.49.73,4.47,2.49,6.8,3.51l-.05.15c-2.53-.63-4.7-2.21-7.26-2.67-.73-.15-1.32-.7-1.87-1.15-.32-.27-.73-.73-.81-1.18-1.64-5.93,1.83-11.65,4.06-16.93l.41-.98c.34-.75.23-1.49.89-2.23,1.52-1.31,3.87-1.91,5.77-1.15,2.02.61,4.25,1.2,6.22,1.97,6.43,2.27,9.44,6.43,10.18,13.16.19,1.46-.18,2.93-.59,4.33-.22.68-.45,1.43-1.05,1.94-.61.48-1.36.61-2.05.78l-.04-.16h0Z"/>
      <path class="st3" d="M174.94,82.63c.41,1.08.17,3.08.43,5.15.38,3.05.34,2.92,1.28,5.85s3.47,4.16,6.32,5.3c3.42,1.36,7.52.44,10.36-1.9s4.48-5.94,4.9-9.6c.34-2.93-.69-7-1.81-9.57"/>
      <path class="st3" d="M96.86,78.97c-.63.02.35-.5,0,0-2.14,3.02-3.67,10.33-2.4,13.79s2.9,5.97,6.43,7.26c.93.34,3.04.02,4.03-.04,1.41-.08,4.59-.48,5.7-1.36,3.08-2.48,3.45-5.26,3.76-9.15"/>
      <path class="st9" d="M160.56,97.01c-5.23-3.49-6.87-10.35-6.84-16.3.35-5.81,7.27-10.13,11.89-12.65,3.52-1.77,7.33-2.95,11.22-3.44-3.87.63-7.61,1.93-11.03,3.81-4.24,2.5-10.92,7-11.03,12.35.17,5.33,1.87,11.82,6.67,14.8l-.86,1.43h0Z"/>
      <path class="st9" d="M113.45,91.55c6.37-9.31,1.59-21.31-9.67-23.35,7.98.77,14.66,8.4,13.61,16.61-.25,2.69-1.14,5.3-2.52,7.63l-1.42-.89h0Z"/>
      <path class="st9" d="M157.72,186.54c-.1-.16-.35-.12-.39,0v-.07c2.35,3.07,9.26,6.44,12.69,3.94,4.26-2.87,3.69-8.79,1.73-13.07,3.43,4.06,4.16,11.12-.81,14.47-2.4,1.66-5.63,1.25-8.05,0-2.27-1.23-4.7-2.77-5.69-5.25l-.02-.05c.15-.22.47-.15.53.05h0Z"/>
      <path class="st9" d="M65.81,176.09c-.53.24-.59.85-.64,1.36-.37,3.46.7,7.71,4.11,9.15,4.34,2.08,7.33-2.41,9.12-5.91-.61,3.23-2.35,7.28-6.11,7.95-5.33.85-9.05-4.8-7.99-9.63.26-.98.34-2.64,1.51-2.93h0Z"/>
      <path class="st3" d="M143.62,34.86c-9.76,3.53-19.12,8.21-27.8,13.91-5.46,3.58-10.72,7.64-14.76,12.77-5.44,6.91-8.41,15.42-11.28,23.73"/>
      <path class="st9" d="M74.83,223.53c7.13,4.78,15.25,7.77,23.75,8.91.91.12,1.67-.86,1.68-1.68,0-1.01-.78-1.55-1.68-1.68-7.89-1.06-15.46-4.02-22.06-8.45-1.8-1.21-3.47,1.7-1.69,2.89h0Z"/>
      <path class="st9" d="M76.55,227.98c2.99,2.57,6.9,3.57,10.71,4.26,4.22.77,8.51,1.01,12.78.69,2.14-.16,2.16-3.51,0-3.35-3.83.29-7.69.16-11.48-.49-3.26-.56-7.06-1.25-9.64-3.47-1.62-1.4-4.01.96-2.37,2.37h0Z"/>
      <path class="st3" d="M72.11,218.44c4.8,3.15,9.65,6.32,15.07,8.22,3.9,1.37,8.01,2.05,12.08,2.85,3.75.73,7.49,1.59,11.29,1.87,2.76.2,5.53.48,8.28.36"/>
      <path class="st3" d="M114.51,91.15c.17,2.92-.83,7.67-3.85,8.07"/>
      <path class="st4" d="M76.77,238.43c-3.52-.49-11.08,2.64-14.12,5.61-3.04,2.97-5.37,6.59-7.5,10.26-2.34,4.05-4.48,8.22-6.4,12.49-2.34,5.23-4.35,11.36-1.84,16.5"/>
      <path class="st4" d="M295,161.5c2.36-1.29,5.37-.84,7.68.53s4.03,3.54,5.54,5.75c3.53,5.18,6.22,10.89,8.62,16.68,5.23,12.56,9.25,25.74,10.23,39.3"/>
      <path class="st9" d="M300.67,163.67c-6.26,10.95-16.1,18.84-25.59,26.73-9.48,7.77-19.33,15.06-29.5,21.88,9.84-7.27,19.33-14.99,28.41-23.15,8.84-8.07,18.24-16.31,23.72-27.04l2.96,1.59h0Z"/>
      <path class="st9" d="M187.37,26.62c-17.52-.15-35.37,3.56-51.65,9.92s-31.07,15.19-40.04,30.02c-11.7,19.33-14.24,42.6-21.88,63.55-4.33,11.87-9.96,23.08-15.07,34.6-4.17,9.41-7.19,19.18-5.88,29.58,1.31,10.4,6.69,20.71,14.83,27.95,3.09,2.76,5.93,4.41,4.67,9.04-.49,1.79-1.28,3.91-.96,5.83.18,1.07.38,2.1,1.41,2.69.63.35,4.31.39,1.95,0,2.01.34,3.4-1.1,3.09-3.09-.12-.76-.32-1.29-.86-1.85-1.16-1.2-3.1-.83-3.95.51-.19.31-.43,1.07-.44,1.12l4.59.6.07-.16c.08-3.24-4.94-3.23-5.03,0-.02.52,0,.99.11,1.5.47,1.96,3.7,2.61,4.59.6.15-.34.3-.88.44-1.12l-3.95.51-.44-.36,3.09-3.09c-.79-.13-1.91-.28-2.62.26-1.32.99,2.39,1.23,3,.68s.73-2.81,1.05-3.94c1.03-3.66.24-6.63-2.27-9.53-3.22-3.72-7.3-6.38-10.22-10.43s-4.98-8.48-6.23-13.24c-2.95-11.19-.04-21.97,4.59-32.25s9.2-19.49,13.15-29.54c7.75-19.73,10.53-41.34,19.55-60.54,7.63-16.25,20.63-26.31,36.85-33.37,16.21-7.06,35.93-11.59,54.42-11.42,3.24.03,3.24-5,0-5.03h.02Z"/>
      <path class="st9" d="M80.62,224.14c-5.03-5.04-11.48-8.47-16.02-14-4.13-5.01-7.23-11.51-7.74-18.04-.16-2.13-3.52-2.15-3.35,0,.55,7.13,3.68,13.97,8.06,19.58,4.65,5.95,11.4,9.54,16.69,14.83,1.52,1.52,3.9-.84,2.37-2.37h0Z"/>
      <path class="st9" d="M79.54,271.22c5.08-3.37,12.26-2.41,16,2.52.27.36.72.54,1.14.3.35-.2.57-.79.3-1.14-2.01-2.65-4.94-4.53-8.21-5.14-3.47-.64-7.14.07-10.08,2.02-.9.59-.05,2.04.84,1.44h0Z"/>
      <path class="st9" d="M91.26,267.8c-1.04-.6-2.17-.96-3.36-1.12-.54-.07-1.09-.08-1.63-.05-.69.05-1.28.16-1.71.75-.27.36-.06.93.3,1.14.43.24.88.06,1.14-.3-.18.15-.21.19-.09.11q-.08.04,0,0s.24-.04.1-.02c.23-.03.44-.04.67-.05s.44,0,.67.02c.24.02.43.04.59.06.92.15,1.69.43,2.45.87.39.23.92.09,1.14-.3s.09-.92-.3-1.14h0Z"/>
      <path class="st9" d="M213.03,298.06l1.26-.65-1.02-1.32c-5.88,4.69-12,9.13-17.41,14.38-1.54,1.5-3.01,3.06-4.4,4.7-.69.82.46,2,1.19,1.19,2.22-2.5,4.77-4.68,7-7.18,1.1-1.22,2.05-2.57,3.12-3.82,1.01-1.17,2.09-2.28,3.27-3.27,1.32-1.1,2.79-2.04,4.37-2.69l-.82-1.4c-1.68,1.71-3.45,3.34-5.32,4.85-.35.29-.29.89,0,1.19.34.35.83.28,1.19,0,1.86-1.52,3.64-3.13,5.32-4.85.54-.55,0-1.73-.82-1.4-2.99,1.22-5.53,3.25-7.71,5.63-1.09,1.2-2.03,2.5-3.08,3.75-1.12,1.33-2.34,2.56-3.57,3.77-1.42,1.39-2.84,2.76-4.16,4.24l1.19,1.19c4.88-5.75,10.81-10.46,16.72-15.09,1.7-1.32,3.4-2.65,5.09-3.99.77-.62-.21-1.73-1.02-1.32l-1.26.65c-.96.5-.11,1.94.84,1.44h0Z"/>
      <path class="st9" d="M348.6,275.06c1.71.85,3.43-.44,4.15-1.99.76-1.65.67-3.49.4-5.24-.62-4.06-2.12-7.92-3.91-11.59s-4.02-7.44-6.14-11.09c-2.24-3.85-4.51-7.67-6.82-11.48-2.61-4.31-5.28-8.59-7.98-12.85-.58-.91-2.02-.07-1.44.84,4.47,7.04,8.83,14.16,13.06,21.35,2.05,3.47,4.1,6.96,6.03,10.51,1.83,3.36,3.51,6.8,4.62,10.48.57,1.91,1.1,3.96,1.12,5.97,0,.87-.1,1.78-.53,2.55-.28.51-1.01,1.43-1.71,1.09-.96-.48-1.81.96-.84,1.44h0Z"/>
      <path class="st9" d="M287.79,177.3c-13.16,17.94-31.88,32.06-52.77,39.74,19.97-9.88,37.76-23.27,52.77-39.74h0Z"/>
      <path class="st9" d="M300.77,161.46c-4.45,6.06-9.06,12.02-14.07,17.63-5.01,5.61-10.34,10.82-16.29,15.34-3.36,2.55-6.89,4.87-10.59,6.9l1.02,1.32c5.7-4.41,11.19-9.08,16.46-13.99.79-.73-.4-1.92-1.19-1.19-5.27,4.91-10.76,9.58-16.46,13.99-.77.6.21,1.75,1.02,1.32,6.64-3.63,12.71-8.22,18.26-13.35s10.66-10.88,15.42-16.81c2.7-3.38,5.32-6.83,7.88-10.32.27-.37.05-.93-.3-1.14-.43-.25-.88-.06-1.14.3h0Z"/>
      <path class="st9" d="M283.26,184.04c5.22-5.47,8.37-12.47,10.58-19.6.64-2.04,1.19-4.1,1.71-6.17l-1.64-.23c.21,2.24-.57,4.36-1.32,6.42-.78,2.19-1.56,4.37-2.33,6.56-.33.92,1.05,1.44,1.53.64,1.87-3.12,3.28-6.51,4.16-10.04.26-1.05-1.3-1.48-1.61-.44-.79,2.57-1.22,5.24-1.31,7.93-.03.83,1.16,1.13,1.56.43.96-1.69,1.66-3.51,2.07-5.41.23-1.05-1.35-1.5-1.61-.44l-.67,2.69,1.61.44.79-3.28c.25-1.05-1.36-1.5-1.61-.44l-.79,3.28c-.25,1.04,1.35,1.5,1.61.44l.67-2.69-1.61-.44c-.38,1.76-1.02,3.44-1.91,5.01l1.56.43c.07-2.55.49-5.04,1.24-7.49l-1.61-.44c-.84,3.4-2.19,6.64-3.98,9.64l1.53.64c.81-2.26,1.61-4.51,2.41-6.77.76-2.14,1.52-4.36,1.3-6.66-.08-.89-1.4-1.2-1.64-.23-1.77,7.06-4.01,14.14-8.06,20.26-1.13,1.7-2.39,3.29-3.79,4.77-.74.78.44,1.97,1.19,1.19h-.02Z"/>
      <path class="st9" d="M108.1,351.69c-1.66-4.44-3.86-8.65-6.59-12.51-.62-.87-2.07-.04-1.44.84,2.64,3.75,4.81,7.82,6.41,12.11.37,1,2,.57,1.61-.44h0Z"/>
      <path class="st9" d="M46.69,273.95c.57,7.52,2.21,14.94,4.9,21.99.38,1,2.01.56,1.61-.44-2.63-6.91-4.28-14.17-4.84-21.55-.08-1.07-1.76-1.08-1.68,0h0Z"/>
      <path class="st9" d="M208.67,85.9c-10.13-12.82-28.78-6.54-40.14,1.23-3.96,2.77-7.88,6.64-7.69,11.84-.93-5.24,2.99-9.93,6.91-12.89,11.17-8.7,31.96-14.85,40.92-.19h0Z"/>
      <path class="st9" d="M114.16,92c-2.82-7.23-10.02-10.94-17.08-12.96l-.73-.23c-.12-.06-.41-.05-.29.06.04.03.14.05.11-.03.07.18-.37.09-.21-.13.12-.15.29-.15.43-.15,7.85-.06,17.11,4.9,17.77,13.44h0Z"/>
      <path class="st5" d="M114.4,49.42c-1.4-2.92-4.84-4.26-8.04-4.71-5.66-.79-11.58.43-16.47,3.38-3.34,2.02-6.17,4.79-8.64,7.81-7.26,8.85-11.6,19.78-14.09,30.95-2.49,11.17-3.21,22.64-3.94,34.05"/>
      <path class="st9" d="M97.18,153.67c0-.57-.8-.82-1.12-.34-.29.42.18.98.61.84.1-.03.1-.05.05-.02-.05.02-.15.1-.35.13-.15,0-.15,0-.16,0-2.36-.17-4.61.73-6.78,1.61-2.38,1.02-4.64,2.33-6.71,3.9,1.95-1.73,4.12-3.24,6.45-4.47,2.2-1.13,4.56-2.26,7.1-2.26.03,0,.06,0-.04,0-.13.02-.15.05-.14.04.03,0,.09-.07.27-.13.11,0,.14-.06.44.02.27.07.47.47.43.7-.03.44-.52.79-.94.57-.23-.12-.35-.34-.35-.59h1.26,0Z"/>
      <path class="st9" d="M92.77,152.5c-.23.05-.45.11-.67.19-.28.11-.54.23-.8.39-.12.07-.23.18-.3.3l-.08.2c-.04.11-.04.23-.02.34,0,.07.02.15.05.21.02.07.05.14.11.18.04.06.09.11.15.15.08.07.17.13.28.15.18.07.38.09.57.11s.4-.02.59-.05.37-.12.54-.2.33-.21.46-.34c.21-.21.29-.53.22-.82s-.3-.51-.59-.59c-.11-.03-.24-.05-.35-.05-.22,0-.33.05-.53.15-.18.08-.34.32-.38.5-.05.2-.03.47.08.64s.29.34.5.38l.23.03c.15,0,.29-.04.43-.12h.02c-.06.02-.14.05-.2.07.03,0,.05-.02.08-.02l-.23.03h.09l-.23-.03s.03,0,.05,0l-.37-1.4s-.07.07-.12.1l.17-.13c-.08.06-.17.12-.27.15l.2-.08c-.1.05-.21.07-.33.09l.23-.03c-.12.02-.24.02-.35,0l.23.03c-.09-.02-.18-.04-.26-.07l.2,1.53c.16-.1.33-.19.5-.26l-.2.08c.24-.11.51-.18.77-.24.2-.04.4-.22.5-.38.11-.18.15-.44.08-.64s-.19-.4-.38-.5l-.2-.08c-.15-.04-.3-.04-.44,0h-.02Z"/>
      <path class="st2" d="M91.04,154.04l-1.71.69"/>
      <path class="st2" d="M85.48,157.61c.64-.15,1.03-.76,1.57-1.13.36-.24.79-.38,1.18-.57.44-.21.83-.5,1.25-.74.61-.35,1.25-.63,1.91-.89-1.19.23-2.32.77-3.24,1.56-.02.02-.05.04-.06.02s.02-.05.02-.03c-.2.12-.4.24-.59.35"/>
      <path class="st2" d="M148,164.74c-4.87-5.83-11.46-10.23-18.74-12.48-.05.08,0,.2.1.22"/>
      <path class="st9" d="M128.33,154.41c.43.05.84.2,1.24.36s.84-.15.99-.48c.17-.42,0-.79-.34-1.04-.23-.17-.46-.33-.72-.46l-.2,1.53c.53-.21,1.01.17,1.47.4.58.29,1.17.58,1.75.87,1.17.57,2.36,1.12,3.57,1.62.84.35,1.31-.84.82-1.4-.6-.68-1.45-1.1-2.24-1.5-.88-.44-1.79-.83-2.7-1.16s-1.52,1.16-.64,1.53c3.06,1.31,5.95,2.94,8.64,4.89.87.64,1.71-.82.84-1.44-2.69-1.94-5.59-3.58-8.64-4.89l-.64,1.53c.79.29,1.55.62,2.3.99.67.34,1.41.67,1.91,1.23l.82-1.4c-1.34-.56-2.64-1.19-3.95-1.83-1.11-.55-2.45-1.56-3.74-1.05-.62.24-.89,1.16-.2,1.53.25.14.49.28.72.46l.64-1.53c-.54-.23-1.1-.34-1.69-.42-.45-.06-.83.43-.83.83,0,.5.39.78.83.83h0v-.03Z"/>
      <path class="st1" d="M144.29,161.42l.13.04c-1.19-1.29-2.68-2.28-4.15-3.24"/>
      <path class="st1" d="M207.46,89.04c1.18-1.69.79-4.12-.45-5.76s-3.16-2.65-5.08-3.39c-5.46-2.11-11.56-2.58-17.28-1.32"/>
      <path class="st9" d="M110.63,100.55c.33-.12.56-.26.83-.47s.29-.64.17-.92c-.14-.33-.43-.49-.76-.52-.32-.03-.65.07-.92.24-.35.23-.51.65-.34,1.04s.58.58.99.48c.8-.19,1.57-.51,2.28-.92l-1.02-1.32c-.1.11-.21.23-.31.34-.29.31-.33.76-.06,1.1.24.32.73.44,1.08.22.49-.31.83-.76,1.1-1.28s.47-1.01.71-1.51l-1.53-.64c-.06.33-.16.64-.29.95-.05.11.06-.15.02-.05-.02.04-.03.07-.05.1-.04.08-.07.15-.12.23-.08.15-.17.3-.26.44l1.44.84c.07-.12.15-.24.22-.35.23-.37.1-.93-.3-1.14s-.91-.1-1.14.3c-.07.12-.15.24-.22.35-.23.37-.1.93.3,1.14.42.22.89.09,1.14-.3.42-.64.72-1.35.86-2.09.08-.41-.08-.82-.48-.99-.35-.15-.87-.04-1.04.34-.22.47-.43.95-.66,1.42-.09.19-.2.37-.32.55-.09.15.13-.15,0,0-.04.04-.06.07-.1.11s-.07.06-.11.1c-.06.05-.05.05.05-.04-.03.02-.05.04-.08.05l1.02,1.32c.1-.11.21-.23.31-.34.29-.31.33-.76.06-1.1s-.72-.43-1.08-.22c-.15.09-.31.17-.47.25-.09.05-.18.08-.26.13-.04.02-.08.03-.11.05.07-.05.12-.05,0,0-.34.14-.69.24-1.04.33l.64,1.53s.05-.04.09-.05c-.12.05-.14.05-.05.03.09-.02.06-.02-.06,0h.11l-.59-1.43c.19-.15,0,0-.05.02-.03.02-.06.04-.09.05.12-.05.14-.05.05-.03-.41.15-.73.58-.59,1.03.13.41.59.74,1.03.59h0v.03Z"/>
      <path class="st3" d="M114.22,90.38c-.83-1.79-1.8-3.5-2.9-5.13"/>
      <path class="st9" d="M208.12,85.06c-5.45-4.27-12.85-5.88-19.63-5.34-2.23.25-4.4,1-6.51,1.93-4.26,1.87-8.5,3.9-12.39,6.43-1.92,1.29-3.77,2.7-5.41,4.36-1.61,1.62-3.38,3.41-3.54,5.82-.21-4.3,5.04-8.79,8.19-11.24,3.87-2.85,8.16-4.94,12.48-6.9,2.2-.93,4.55-1.75,7.01-1.97,7.1-.39,14.8,1.72,19.81,6.92h0Z"/>
      <path class="st9" d="M197.98,79.84c1.6.78,3.38,1.03,4.94,1.87s3.11,1.77,4.5,2.85c.35.28.83.34,1.19,0,.29-.29.36-.91,0-1.19-1.46-1.14-3.06-2.12-4.68-3.02-.81-.44-1.64-.8-2.52-1.07s-1.76-.48-2.58-.88c-.96-.47-1.81.97-.84,1.44h0Z"/>
      <path class="st9" d="M171.78,84.98c-3.52,2.63-6.31,5.74-9.01,9.16-.91,1.11-1.78,2.2-2.43,3.55-.04-1.52.61-3.01,1.35-4.29,2.19-3.87,5.61-7.44,10.09-8.42h0Z"/>
      <path class="st9" d="M102.4,342c.52.88,1.14,1.71,1.84,2.46.28.31.78.31,1.1.06.14-.11.26-.26.3-.44.05-.24,0-.43-.08-.64-.34-.74-.82-1.43-1.38-2.03-.3-.32-.89-.33-1.19,0-.32.34-.32.84,0,1.19.15.16.3.34.44.51l-.13-.17c.32.42.59.87.81,1.35l1.32-1.02c-.27-.29-.54-.6-.78-.92l.13.17c-.34-.44-.64-.9-.93-1.37-.23-.38-.76-.54-1.14-.3s-.54.74-.3,1.14h0Z"/>
      <path class="st9" d="M138.69,301.96c-4.04-13.79-7.52-26.54-22.57-31.58-.13-.02-.78-.34-.92-.23-.11.04.06.23.11.1-.02.15-.29-.02-.15-.15.18-.18.79.03,1.03.03,6.8,1.06,12.88,5.36,16.46,11.21,3.6,6.33,5.34,13.46,6.05,20.61h0Z"/>
      <path class="st9" d="M139.94,300.14c-.23-4.52-1.2-8.86-3.09-12.97-.41-.88-1.77-.24-1.53.64.76,2.88,1.47,5.76,2.1,8.66.24,1.06,1.81.61,1.61-.44-1.06-5.74-3.1-11.28-6-16.34-.48-.83-1.76-.27-1.53.64.58,2.36,1.96,4.36,3.48,6.21.56.67,1.6-.05,1.4-.82-1.16-4.55-3.8-8.66-7.46-11.6-.54-.43-1.44-.19-1.43.59.03,1.21.85,2.2,1.52,3.15.73,1.04,1.52,2.05,2.34,3.03.62.73,1.81-.22,1.32-1.02-1.69-2.73-3.87-5.11-6.42-7.05s-5.63-3.69-8.91-3.96c-.93-.07-1.15,1.47-.23,1.64,4.01.75,7.7,2.48,10.76,5.19.81.72,2-.46,1.19-1.19-3.27-2.9-7.2-4.82-11.5-5.63l-.23,1.64c2.94.23,5.77,1.96,8.07,3.72s4.29,3.97,5.82,6.45l1.32-1.02c-.68-.82-1.33-1.65-1.95-2.52-.29-.41-.57-.82-.84-1.22-.24-.38-.56-.77-.57-1.24l-1.43.59c3.45,2.78,5.92,6.58,7.02,10.87l1.4-.82c-1.34-1.62-2.54-3.39-3.05-5.46l-1.53.64c2.83,4.94,4.79,10.33,5.83,15.94l1.61-.44c-.64-2.9-1.34-5.8-2.1-8.66l-1.53.64c1.77,3.84,2.66,7.92,2.87,12.13.05,1.07,1.73,1.08,1.68,0h0v.02Z"/>
      <path class="st9" d="M90.87,269.44c.75.5,1.52.95,2.33,1.35.98.48,1.71-.83.84-1.44-2.9-2.09-6.63-2.48-10.11-2.3-1.07.05-1.08,1.72,0,1.68,3.21-.15,6.58.15,9.26,2.08l.84-1.44c-.81-.4-1.59-.85-2.33-1.35-.9-.6-1.74.84-.84,1.44h0Z"/>
      <path class="st9" d="M215.19,296.77l.35-.15-.84-1.44c-5.11,2.63-9.24,6.72-13.26,10.75-.76.76.42,1.95,1.19,1.19,3.93-3.94,7.93-7.92,12.92-10.49.41-.21.52-.77.3-1.14-.24-.43-.73-.48-1.14-.3l-.35.15c-.42.18-.51.79-.3,1.14.24.43.73.48,1.14.3h0Z"/>
      <path class="st9" d="M274.06,275.61c6.34,15.25,12.34,30.68,17.16,46.49.52,1.77-.52,3.73-1.8,4.82-8.81,8.29-19.18,14.56-29.8,20.18-14.59,8.04-32.92,17.49-47.25,25.82,14.17-8.53,32.41-18.28,46.86-26.53,5.24-2.9,10.35-5.98,15.22-9.4,4.86-3.42,9.53-7.18,13.71-11.33.49-.5.91-1.02,1.13-1.52.49-1.17-.22-2.42-.61-3.65l-.75-2.11c-1.01-2.81-2.04-5.61-3.1-8.4-4.23-11.17-8.93-22.14-13.85-33.03l3.08-1.33h0Z"/>
      <path class="st6" d="M24.46,350.55c55.8,21.94,120.36,24.25,179,22.66,50.04-1.36,101.18-7.29,149.14-21.61,7.26-2.17,16.7-5.61,23.43-9.09"/>
      <path class="st9" d="M240.76,357.03c-8.85,5.25-17.94,10.2-26.18,16.25l-1.03-1.49c8.73-5.65,18.06-10.03,27.21-14.76,0,0-9.15,4.74,0,0Z"/>
    </g>
    <path class="st8" d="M257.21,347.97c-14.48,7.03-27.16,17.1-40.95,25.33l-1.36-2.36c3.53-1.91,7.05-3.83,10.52-5.81,10.34-6.09,20.67-12.52,31.79-17.17h0Z"/>
    <path class="st0" d="M45.34,357.31c-1.89-6.22-3.34-12.58-4.34-19.01"/>
  </g>
</svg>